<svg width="200" height="200" xmlns="http://www.w3.org/2000/svg"><title>Logo_PestanaCR7</title><path d="M113.647 128.263h-3.298v-2.492h-1.266v6.139h1.266v-2.546h3.298v2.546h1.266v-6.14h-1.266v2.493zm-7.53-15.123l-7.242-8.672H96.56v12.877h2.655v-8.655l7.242 8.655h2.313v-12.877h-2.654v8.672zm-6.492 18.77h4.863v-1.11h-3.651v-1.48h2.992v-1.111h-2.992v-1.328h3.651v-1.11h-4.863v6.139zm-4.756-6.14h-1.265v6.14h4.456v-1.102h-3.19v-5.037zm55.522-16.615c0-1.532-1.041-2.364-2.348-2.364h-3.086v4.69h3.086c1.307 0 2.348-.889 2.348-2.326zm.256 4.152l2.59 4.038h-3.097l-2.183-3.556h-3v3.556h-2.651v-12.862h6.153c2.519 0 4.678 1.476 4.678 4.691 0 1.995-1.027 3.433-2.49 4.133zM90.56 112.8l-2.2-5.7-2.312 5.7h4.512zm4.342 4.545H92.21l-.987-2.576h-5.858l-1.004 2.576h-2.693l5.138-12.877h3.11l4.986 12.877zm51.673 11.017l-1.139-.325c-.442-.126-.668-.261-.668-.596 0-.351.325-.595 1.103-.595.67 0 1.436.225 1.889.513l.361-1.182c-.47-.252-1.319-.487-2.206-.487-1.69 0-2.458.84-2.458 1.86 0 .83.48 1.399 1.41 1.643l1.166.316c.551.153.878.316.878.65 0 .405-.417.685-1.157.685-.743 0-1.456-.288-1.899-.577l-.299 1.2c.399.226 1.276.533 2.17.533 1.483 0 2.503-.785 2.503-1.94 0-.876-.541-1.382-1.654-1.698zm-15.513 3.548h4.863v-1.11h-3.651v-1.48h2.992v-1.111h-2.992v-1.328h3.651v-1.11h-4.863v6.139zm-9.205-3.06c0-1.129-.787-1.969-1.917-1.969-1.111 0-1.916.84-1.916 1.968 0 1.111.805 1.969 1.916 1.969 1.13 0 1.917-.858 1.917-1.969zm1.247 0c0 1.796-1.356 3.15-3.172 3.15-1.8 0-3.156-1.354-3.156-3.15 0-1.815 1.357-3.17 3.156-3.17 1.816 0 3.172 1.355 3.172 3.17zm17.006-13.195l-1.809-1.808c-.708.752-1.718 1.209-2.912 1.209-2.33 0-4.015-1.797-4.015-4.123 0-2.364 1.685-4.123 4.015-4.123 1.201 0 2.215.454 2.924 1.208l1.82-1.816c-1.187-1.193-2.853-1.907-4.763-1.907-3.768 0-6.609 2.837-6.609 6.638 0 3.764 2.84 6.6 6.61 6.6 1.896 0 3.554-.705 4.74-1.878zm-50.955 12.661l-1.628-2.545h-1.41v.09l2.405 3.62v2.429h1.265v-2.438l2.405-3.61v-.091h-1.41l-1.627 2.545zm30.5-15.516l-2.2-5.7-2.313 5.7h4.514zm-.645-8.332l4.986 12.877h-2.691l-.986-2.576h-5.858l-1.005 2.576h-2.692l5.137-12.877h3.11zm5.199 22.413h2.025v5.029h1.266v-5.029h1.952v-1.11h-5.243v1.11zm-66.01-11.866h-7.658v-3.106h4.819v-2.329h-4.82v-2.783h7.66v-2.33H48v12.878h10.2v-2.33zm96.896-10.532v2.655h5.804l-4.543 10.24h3.134l5.51-12.895h-9.905zm-16.022 21.288h-1.266v6.139h4.456v-1.102h-3.19v-5.037zm-95.977-16.626c0-1.534-1.043-2.367-2.352-2.367h-3.09v4.696h3.09c1.31 0 2.352-.89 2.352-2.33zm2.748.02c0 2.896-2.162 4.619-4.683 4.619h-3.507v3.56H35v-12.876h6.16c2.523 0 4.684 1.476 4.684 4.696zM109.434 65l-7.855 3.041v18.593l7.855-3.015V65zm-29.338 61.881h2.025v5.029h1.266v-5.029h1.952v-1.11h-5.243v1.11zm-4.32-9.536h2.655v-10.227h4.305l1.197-2.65h-12.6v2.65h4.443v10.227zm23.118-48.306l-7.852 3.01V94.22l7.852-3.014V69.04zm-31.167 62.87h4.863V130.8h-3.652v-1.48h2.993v-1.111h-2.993v-1.328h3.652v-1.11h-4.863v6.139zm-6.428 0h1.21v-2.157h2.983v-1.11H62.51v-1.76h3.47v-1.111H61.3v6.139zm15.921-3.547l-1.138-.325c-.444-.126-.67-.261-.67-.596 0-.351.326-.595 1.103-.595.67 0 1.437.225 1.89.513l.361-1.182c-.47-.252-1.32-.487-2.206-.487-1.69 0-2.459.84-2.459 1.86 0 .83.48 1.399 1.41 1.643l1.166.316c.552.153.877.316.877.65 0 .405-.416.685-1.157.685-.74 0-1.455-.288-1.898-.577l-.298 1.2c.398.226 1.274.533 2.17.533 1.482 0 2.503-.785 2.503-1.94 0-.876-.542-1.382-1.654-1.698zm-19.43 3.548h1.267v-6.14H57.79v6.14zm6.946-16.8c-.853 0-2.17-.185-2.904-.45l-1.57 1.825c.883.464 2.627 1.049 4.417 1.049 3.11 0 5.737-1.648 5.737-4.072 0-1.837-1.137-2.896-3.469-3.56l-2.875-.681c-.928-.266-1.403-.55-1.403-1.25 0-.739.683-1.25 2.313-1.25.949 0 2.473.219 3.343.546l1.34-1.823.038-.124c-.985-.53-2.768-1.023-4.626-1.023-3.545 0-5.157 1.76-5.157 3.901 0 1.742 1.005 2.935 2.958 3.446l2.445.663c1.157.322 2.325.663 2.325 1.364 0 .852-1.357 1.439-2.912 1.439zm-11.701 15.698h3.191v1.102H51.77v-6.14h1.265v5.038z" fill="#FFF" fill-rule="evenodd"/></svg>