<svg width="200" height="200" fill="none" xmlns="http://www.w3.org/2000/svg"><path d="M50.84 90h20.962v4.279H54.93v3.499h13.392v4.278H54.93v3.499h16.873v4.278H50.84V90Zm31.77 12.04h8.832a4.8 4.8 0 0 1-.563.986c-1.413 1.877-4.089 2.529-6.278 2.513-3.329-.016-7.083-1.606-7.083-5.646s3.754-5.614 7.084-5.646c2.067 0 4.545.557 6.02 2.195l.09.095h4.682l-.182-.43c-1.764-4.31-6.354-6.138-10.61-6.107-5.686.032-11.173 3.356-11.173 9.909 0 6.553 5.472 9.877 11.172 9.908 2.433.016 5.002-.572 7.084-1.924v1.924h4.09v-12.04H82.61v4.279-.016Zm15.992 7.777h20.962v-4.278h-16.873v-3.499h13.392v-4.278h-13.392v-3.5h16.873V90H98.602v19.817ZM170 99.909c0 5.455-4.256 9.908-9.47 9.908h-13.027V90h13.027c5.214 0 9.47 4.454 9.47 9.909Zm-4.089 0c0-3.102-2.432-5.646-5.381-5.646h-8.953v11.276h8.953c2.964 0 5.381-2.529 5.381-5.63Zm-25.233 4.342 1.155 1.304h-.745l-.73-.795L127.62 90h-5.366v19.817h4.089V95.583l-1.11-1.368h.684l.472.557 13.012 15.061h5.366V90h-4.089v14.251ZM30 94.295h12.495l.775-1.161h.593l-.851 1.304-3.116 5.041c-1.14 1.957-1.93 3.722-2.31 5.265a21.02 21.02 0 0 0-.609 4.898v.175h4.059v-.143c.015-1.368.167-2.672.44-3.833.274-1.145.852-2.497 1.718-4.008l5.001-8.683V90H30v4.295Z" fill="#fff"/></svg>