<?xml version="1.0" encoding="UTF-8"?>
<svg width="200px" height="200px" viewBox="0 0 200 200" version="1.1" xmlns="http://www.w3.org/2000/svg" xmlns:xlink="http://www.w3.org/1999/xlink">
    <title>Logo_DomumSeptem</title>
    <g id="Logo_DomumSeptem" stroke="none" stroke-width="1" fill="none" fill-rule="evenodd">
        <path d="M127.50777,161 C127.100096,161 126.751121,160.916831 126.457629,160.752915 C126.165744,160.589 125.938991,160.364524 125.778977,160.079489 C125.617355,159.794454 125.53775,159.468237 125.53775,159.099226 C125.53775,158.747978 125.627808,158.427414 125.808728,158.139956 C125.988844,157.852499 126.228463,157.620756 126.52678,157.448766 C126.825098,157.275968 127.157991,157.189569 127.524656,157.189569 C127.995048,157.189569 128.385836,157.327646 128.695411,157.604607 C129.004985,157.88076 129.217265,158.260269 129.33225,158.744748 L126.389281,159.781534 L126.20032,159.305937 L128.600528,158.41611 L128.437298,158.537229 C128.368146,158.347475 128.253965,158.183559 128.093147,158.044675 C127.932329,157.906599 127.723266,157.837157 127.464349,157.837157 C127.247245,157.837157 127.053459,157.888834 126.8846,157.992998 C126.714937,158.096353 126.581459,158.239275 126.484164,158.420954 C126.386065,158.601827 126.337819,158.813383 126.337819,159.055622 C126.337819,159.297862 126.387673,159.513456 126.488184,159.704017 C126.588695,159.893772 126.729411,160.041538 126.910331,160.148124 C127.090447,160.255517 127.29549,160.308809 127.524656,160.308809 C127.679845,160.308809 127.83021,160.279741 127.976554,160.221603 C128.123703,160.16508 128.262006,160.089986 128.394681,159.997935 L128.755718,160.593845 C128.57721,160.714157 128.378599,160.812668 128.157475,160.886955 C127.93635,160.962049 127.72005,161 127.50777,161 L127.50777,161 Z M121.727168,155.764392 L122.544123,155.764392 L122.544123,157.353485 L123.516268,157.353485 L123.516268,157.984923 L122.544123,157.984923 L122.544123,160.913601 L121.727168,160.913601 L121.727168,157.984923 L121.081484,157.984923 L121.081484,157.353485 L121.727168,157.353485 L121.727168,155.764392 Z M116.667835,160.334648 C116.868857,160.334648 117.048973,160.296697 117.208987,160.221603 C117.370609,160.147316 117.504088,160.040731 117.609424,159.902654 C117.715564,159.764577 117.788736,159.603084 117.82894,159.418175 L117.82894,158.718909 C117.783107,158.546112 117.702698,158.394308 117.587714,158.265114 C117.473533,158.135112 117.336033,158.034986 117.174411,157.962314 C117.014397,157.890449 116.839106,157.854113 116.650145,157.854113 C116.432236,157.854113 116.233626,157.906599 116.056726,158.010762 C115.879023,158.114117 115.736699,158.257846 115.630559,158.441949 C115.524419,158.626858 115.471349,158.842452 115.471349,159.090344 C115.471349,159.320471 115.526027,159.53122 115.634579,159.720974 C115.743935,159.910729 115.89028,160.060917 116.073612,160.170733 C116.257749,160.279741 116.455555,160.334648 116.667835,160.334648 L116.667835,160.334648 Z M116.452339,161 C116.119445,161 115.817108,160.927328 115.544521,160.783599 C115.271935,160.63987 115.055635,160.428314 114.894817,160.148124 C114.733999,159.869548 114.654394,159.52799 114.654394,159.125065 C114.654394,158.722139 114.737215,158.375736 114.903662,158.088279 C115.070108,157.800013 115.293645,157.578768 115.574273,157.422119 C115.855704,157.267086 116.162866,157.189569 116.495759,157.189569 C116.827849,157.189569 117.110084,157.266278 117.342466,157.418082 C117.574848,157.5715 117.748531,157.751565 117.863516,157.958277 L117.81125,158.088279 L117.889247,157.336528 L118.62901,157.336528 L118.62901,160.913601 L117.82894,160.913601 L117.82894,159.980171 L117.923823,160.187689 C117.894876,160.24502 117.841002,160.318499 117.760593,160.408128 C117.67938,160.496949 117.578064,160.587385 117.455039,160.680244 C117.331209,160.772295 117.186473,160.849004 117.020026,160.909564 C116.853579,160.969316 116.664618,161 116.452339,161 L116.452339,161 Z M110.843008,155.764392 L111.660767,155.764392 L111.660767,157.353485 L112.632912,157.353485 L112.632912,157.984923 L111.660767,157.984923 L111.660767,160.913601 L110.843008,160.913601 L110.843008,157.984923 L110.198128,157.984923 L110.198128,157.353485 L110.843008,157.353485 L110.843008,155.764392 Z M106.627165,160.983043 C106.375485,160.983043 106.130237,160.937825 105.892227,160.849004 C105.653412,160.759375 105.457214,160.625336 105.302829,160.446078 L105.638134,159.980171 C105.793324,160.1239 105.948513,160.2321 106.102898,160.304772 C106.257283,160.376636 106.413277,160.412165 106.567662,160.412165 C106.682647,160.412165 106.787983,160.397631 106.886082,160.369369 C106.983377,160.3403 107.062177,160.291045 107.122484,160.221603 C107.182791,160.152968 107.213346,160.064147 107.213346,159.954332 C107.213346,159.821907 107.170729,159.719359 107.087908,159.647495 C107.005087,159.57563 106.899751,159.516685 106.774313,159.469852 C106.648071,159.424634 106.510572,159.381031 106.361011,159.340658 C106.068322,159.242955 105.844785,159.1073 105.689596,158.934503 C105.535211,158.762512 105.457214,158.551764 105.457214,158.303872 C105.457214,158.114117 105.505459,157.936475 105.599538,157.772559 C105.69442,157.608644 105.83594,157.47299 106.025705,157.366404 C106.215471,157.259819 106.444636,157.207333 106.714006,157.207333 C106.960058,157.207333 107.181183,157.23721 107.376576,157.29777 C107.571166,157.357522 107.755303,157.46007 107.926574,157.604607 L107.608958,158.105235 C107.505231,157.99542 107.383813,157.913866 107.243098,157.858958 C107.102382,157.804051 106.974532,157.777404 106.859547,157.777404 C106.756623,157.777404 106.660132,157.792746 106.571682,157.824237 C106.483233,157.855728 106.411669,157.902561 106.356186,157.962314 C106.302312,158.022874 106.274973,158.099583 106.274973,158.191634 C106.269345,158.312754 106.307941,158.408842 106.390762,158.481514 C106.474388,158.553379 106.578919,158.612324 106.705161,158.658349 C106.831404,158.704375 106.960058,158.7504 107.091929,158.796426 C107.264004,158.848104 107.419997,158.917546 107.556693,159.003945 C107.694192,159.090344 107.805156,159.196929 107.888782,159.323701 C107.970799,159.450473 108.013416,159.608737 108.013416,159.799298 C108.013416,160.011662 107.962758,160.209491 107.862247,160.390363 C107.761735,160.572043 107.609762,160.715772 107.406328,160.822358 C107.202893,160.928943 106.943172,160.983043 106.627165,160.983043 L106.627165,160.983043 Z M98.8411626,154.666239 L102.884126,154.666239 L102.884126,155.469667 L99.6750038,155.469667 L99.6750038,157.371249 L102.539976,157.371249 L102.539976,158.183559 L99.6750038,158.183559 L99.6750038,160.109365 L103.00474,160.109365 L103.00474,160.913601 L98.8411626,160.913601 L98.8411626,154.666239 Z M90.9771638,160.912794 L91.7852742,160.912794 L91.7852742,154.225362 L90.9771638,154.225362 L90.9771638,160.912794 Z M86.2619809,160.334648 C86.4630034,160.334648 86.6439236,160.296697 86.8039375,160.221603 C86.9647555,160.147316 87.0982344,160.040731 87.2043742,159.902654 C87.3105141,159.764577 87.3836863,159.603084 87.4230867,159.418175 L87.4230867,158.718909 C87.3780577,158.546112 87.2968446,158.394308 87.1826638,158.265114 C87.067679,158.135112 86.9301796,158.034986 86.7693616,157.962314 C86.6093478,157.890449 86.4340562,157.854113 86.2450951,157.854113 C86.0263826,157.854113 85.8285765,157.906599 85.6508726,158.010762 C85.4739729,158.114117 85.331649,158.257846 85.2255091,158.441949 C85.1185652,158.626858 85.0662993,158.842452 85.0662993,159.090344 C85.0662993,159.320471 85.1201733,159.53122 85.2295296,159.720974 C85.3388858,159.910729 85.484426,160.060917 85.6685626,160.170733 C85.8518951,160.279741 86.0497012,160.334648 86.2619809,160.334648 L86.2619809,160.334648 Z M86.0464849,161 C85.7135917,161 85.4112539,160.927328 85.1394715,160.783599 C84.866885,160.63987 84.6497808,160.428314 84.4897669,160.148124 C84.3289489,159.869548 84.2485399,159.52799 84.2485399,159.125065 C84.2485399,158.722139 84.3321653,158.375736 84.4986119,158.088279 C84.6650585,157.800013 84.8877914,157.578768 85.1692228,157.422119 C85.4498502,157.267086 85.7570125,157.189569 86.0899057,157.189569 C86.4219948,157.189569 86.7050344,157.266278 86.9374164,157.418082 C87.1697984,157.5715 87.3434818,157.751565 87.4576626,157.958277 L87.4062008,158.088279 L87.4841975,157.336528 L88.2239602,157.336528 L88.2239602,160.913601 L87.4230867,160.913601 L87.4230867,159.980171 L87.5187734,160.187689 C87.4890221,160.24502 87.435148,160.318499 87.3547391,160.408128 C87.2743301,160.496949 87.1730147,160.587385 87.049989,160.680244 C86.9253551,160.772295 86.781423,160.849004 86.6149764,160.909564 C86.4485298,160.969316 86.2587646,161 86.0464849,161 L86.0464849,161 Z M80.3688064,161 C79.9611328,161 79.6121578,160.916831 79.318665,160.752915 C79.0267804,160.589 78.8000271,160.364524 78.6400132,160.079489 C78.4783911,159.794454 78.3987862,159.468237 78.3987862,159.099226 C78.3987862,158.747978 78.4888443,158.427414 78.6697645,158.139956 C78.8498807,157.852499 79.0894994,157.620756 79.3878168,157.448766 C79.6861341,157.275968 80.0190273,157.189569 80.3856923,157.189569 C80.8560848,157.189569 81.2468725,157.327646 81.5564471,157.604607 C81.8660217,157.88076 82.0783014,158.260269 82.1932863,158.744748 L79.2503174,159.781534 L79.0613563,159.305937 L81.4615645,158.41611 L81.2983343,158.537229 C81.2291825,158.347475 81.1150018,158.183559 80.9541838,158.044675 C80.7933658,157.906599 80.5843025,157.837157 80.3253855,157.837157 C80.1082813,157.837157 79.9144956,157.888834 79.7456368,157.992998 C79.5759738,158.096353 79.4424949,158.239275 79.3452,158.420954 C79.247101,158.601827 79.1988557,158.813383 79.1988557,159.055622 C79.1988557,159.297862 79.2487092,159.513456 79.3492205,159.704017 C79.4497317,159.893772 79.5904474,160.041538 79.7713676,160.148124 C79.9514838,160.255517 80.1565267,160.308809 80.3856923,160.308809 C80.5408816,160.308809 80.6912464,160.279741 80.8375908,160.221603 C80.9847392,160.16508 81.1230427,160.089986 81.2557175,159.997935 L81.6167538,160.593845 C81.4382459,160.714157 81.2396357,160.812668 81.018511,160.886955 C80.7973863,160.962049 80.5810861,161 80.3688064,161 L80.3688064,161 Z M74.7425897,158.286915 L76.3676553,160.913601 L75.4043556,160.913601 L73.7447142,158.312754 L74.7425897,158.286915 Z M73.7181792,157.803243 C73.9650348,157.803243 74.1700777,157.765292 74.3333079,157.690198 C74.4965382,157.615911 74.6243885,157.519015 74.7168588,157.401125 C74.808525,157.282428 74.8744604,157.158078 74.9146649,157.024846 C74.9548694,156.892422 74.9741676,156.763227 74.9741676,156.636455 C74.9741676,156.509683 74.9532612,156.379681 74.9098404,156.247257 C74.8672236,156.114832 74.7980719,155.990482 74.7031893,155.871785 C74.6091108,155.753895 74.486085,155.657807 74.3333079,155.582712 C74.182139,155.507618 73.9963943,155.469667 73.7784859,155.469667 L72.8143822,155.469667 L72.8143822,157.803243 L73.7181792,157.803243 Z M73.6321416,154.666239 C73.9481489,154.666239 74.2392294,154.708227 74.5053832,154.792203 C74.772341,154.875372 75.004723,154.998915 75.2025291,155.16283 C75.4003352,155.327553 75.5555245,155.531034 75.6664889,155.772467 C75.7790615,156.013899 75.8345437,156.29086 75.8345437,156.602542 C75.8345437,156.849626 75.7983597,157.091058 75.7275997,157.327646 C75.6560358,157.564233 75.5378345,157.779019 75.3746043,157.971196 C75.2113741,158.16418 74.995878,158.320021 74.7289201,158.437911 C74.4627664,158.556609 74.1314814,158.614746 73.7358692,158.614746 L72.8143822,158.614746 L72.8143822,160.913601 L71.980541,160.913601 L71.980541,154.666239 L73.6321416,154.666239 Z M74.3662756,95.4547753 L74.3662756,91.6281951 L74.3662756,60.2565358 L100.488743,42.2516646 L125.562677,59.5653452 L74.3662756,95.4547753 Z M101.824336,79.4734132 L126.57985,62.1193593 L126.630508,96.0321133 L101.829161,96.0321133 L101.824336,79.4734132 Z M74.3702961,98.7185519 L99.1563659,81.3426964 L99.1611904,98.7112847 L129.302499,98.7112847 L129.2438,58.8539678 L100.490351,39 L71.6975014,58.8458932 L71.6975014,98.7185519 L71.6975014,98.7185519 L74.3662756,98.7185519 L74.3702961,98.7185519 Z M125.546595,144.822424 L117.046561,144.822424 L117.046561,139.7257 L123.158448,139.7257 L124.625912,137.578648 L124.625912,137.576226 L117.046561,137.576226 L117.046561,132.548944 L124.086368,132.548944 L125.536142,130.427732 L125.536142,130.422887 L114.83853,130.422887 L114.83853,146.947674 L124.094409,146.947674 L125.546595,144.822424 Z M147.977485,129.897227 L139.749234,141.452869 L131.658482,129.897227 L131.635967,129.897227 L131.635967,146.947674 L133.774846,146.947674 L133.774846,136.554782 L139.715462,144.868449 L139.761295,144.868449 L145.792773,136.272169 L145.792773,146.947674 L148,146.947674 L148,129.897227 L147.977485,129.897227 Z M99.1258104,130.422887 L110.073494,130.422887 L110.073494,132.548944 L105.657432,132.548944 L105.657432,146.947674 L103.450206,146.947674 L103.450206,132.548944 L99.1258104,132.548944 L99.1258104,130.422887 Z M89.5008549,138.719598 C90.1529717,138.719598 90.692516,138.617049 91.1170755,138.411146 C91.5416349,138.205242 91.8761363,137.935548 92.1189714,137.599643 C92.3610025,137.264544 92.53549,136.922179 92.6416298,136.570931 C92.7485738,136.220491 92.8016437,135.893467 92.8016437,135.588245 C92.8016437,135.253955 92.7485738,134.906744 92.6416298,134.54823 C92.53549,134.19133 92.3577861,133.862691 92.1069101,133.566351 C91.8568381,133.268396 91.5303777,133.024542 91.1283327,132.83398 C90.7262878,132.643418 90.2293603,132.548944 89.6375501,132.548944 L87.0885853,132.548944 L87.0885853,138.719598 L89.5008549,138.719598 Z M89.2741015,130.422887 C90.4713913,130.422887 91.4966059,130.625561 92.3457248,131.028486 C93.1964518,131.433027 93.8517851,132.015209 94.3149408,132.77665 C94.7772925,133.538897 95.0088704,134.461023 95.0088704,135.543027 C95.0088704,136.197882 94.9099673,136.841432 94.7129653,137.473678 C94.5159633,138.106731 94.2007601,138.678417 93.7681597,139.188735 C93.3363635,139.698246 92.7702842,140.110861 92.0731383,140.422543 C91.3751883,140.735032 90.5252653,140.890873 89.5241735,140.890873 L87.0885853,140.890873 L87.0885853,146.947674 L84.8805546,146.947674 L84.8805546,130.422887 L89.2741015,130.422887 Z M79.7110609,144.822424 L71.211027,144.822424 L71.211027,139.7257 L77.3237181,139.7257 L78.790378,137.578648 L78.790378,137.576226 L71.211027,137.576226 L71.211027,132.548944 L78.2508337,132.548944 L79.7014118,130.427732 L79.7014118,130.422887 L69.0038004,130.422887 L69.0038004,146.947674 L78.2588746,146.947674 L79.7110609,144.822424 Z M62.485848,139.108796 C62.0838031,138.743014 61.6327087,138.433755 61.1317607,138.182633 C60.6308127,137.931511 60.1298647,137.714303 59.6289168,137.531008 C59.022633,137.302495 58.4493169,137.059448 57.9113808,136.800252 C57.3726406,136.541055 56.9328035,136.232603 56.5910653,135.874088 C56.2501312,135.516381 56.0796641,135.077927 56.0796641,134.560342 C56.0796641,133.874803 56.3401893,133.324919 56.8644558,132.913919 C57.3879183,132.502919 58.0890847,132.297015 58.9695631,132.297015 C59.6072063,132.297015 60.2585191,132.403601 60.9275219,132.617579 C61.4992298,132.800066 62.0234964,133.016467 62.5172075,133.255477 L63.6107697,131.655887 C62.9884042,131.290913 62.2727642,130.979231 61.4622416,130.720034 C60.6501109,130.460838 59.7125421,130.330836 58.6511435,130.330836 C57.7095543,130.362327 56.8757131,130.564194 56.1472077,130.937243 C55.4187023,131.311099 54.8453862,131.82061 54.4288677,132.468198 C54.011545,133.116593 53.8024817,133.874803 53.8024817,134.742829 C53.8024817,135.459051 53.9431974,136.06788 54.2238248,136.570931 C54.5044521,137.073982 54.8687048,137.497094 55.3165829,137.83946 C55.7644609,138.182633 56.2501312,138.47655 56.7727896,138.719598 C57.2970562,138.963452 57.823735,139.177431 58.3552384,139.359918 C58.9164932,139.573089 59.4367393,139.812906 59.9143687,140.07937 C60.391998,140.346641 60.7787653,140.670435 61.0746703,141.051559 C61.3705754,141.431875 61.5185279,141.896168 61.5185279,142.445245 C61.5185279,143.100907 61.3520813,143.625759 61.0175799,144.022225 C60.6838827,144.418691 60.26656,144.707764 59.7664161,144.891058 C59.2654681,145.073546 58.7500466,145.165597 58.2185432,145.165597 C57.7328729,145.165597 57.2319249,145.096962 56.7156992,144.959693 C56.3442097,144.861182 55.9847815,144.736832 55.6374147,144.586644 C55.5023276,144.527699 55.3688487,144.465524 55.236978,144.399312 C54.8244799,144.1926 54.4610313,143.975392 54.1305503,143.750917 L53.0072368,145.394109 C53.447074,145.68399 53.9472178,145.964988 54.5084726,146.238719 C55.0697273,146.513257 55.6808356,146.731273 56.3401893,146.890344 C57.0011511,147.050222 57.6878439,147.130161 58.4002675,147.130161 C59.523581,147.130161 60.4868806,146.924257 61.2917746,146.513257 C62.0950603,146.102257 62.7142095,145.538646 63.1460058,144.822424 C63.5786061,144.106202 63.7941022,143.306003 63.7941022,142.422636 C63.7941022,141.645046 63.6767051,140.990191 63.4419109,140.456456 C63.2063125,139.923529 62.8878929,139.473771 62.485848,139.108796 L62.485848,139.108796 Z M147.977485,108.260375 L139.749234,119.815209 L131.658482,108.260375 L131.635967,108.260375 L131.635967,125.310821 L133.774846,125.310821 L133.774846,114.91793 L139.715462,123.23079 L139.761295,123.23079 L145.792773,114.635317 L145.792773,125.310821 L148,125.310821 L148,108.260375 L147.977485,108.260375 Z M115.94335,119.459117 C115.94335,120.206023 116.121858,120.87299 116.478874,121.45921 C116.835085,122.046237 117.312715,122.506493 117.911762,122.841591 C118.511613,123.177497 119.175791,123.344642 119.903492,123.344642 C120.677831,123.344642 121.368544,123.177497 121.974828,122.841591 C122.581916,122.506493 123.056329,122.046237 123.397263,121.45921 C123.739805,120.87299 123.910272,120.206023 123.910272,119.459117 L123.910272,108.785227 L126.094984,108.785227 L126.094984,119.527752 C126.094984,120.731683 125.821594,121.783004 125.275617,122.68252 C124.72964,123.58123 123.985856,124.274035 123.045071,124.761745 C122.104286,125.250261 121.057361,125.493309 119.903492,125.493309 C118.766509,125.493309 117.726017,125.250261 116.786036,124.761745 C115.845251,124.274035 115.101468,123.58123 114.554687,122.68252 C114.00871,121.783004 113.736123,120.731683 113.736123,119.527752 L113.736123,108.785227 L115.94335,108.785227 L115.94335,119.459117 Z M108.171017,108.260375 L99.9427657,119.815209 L91.8528177,108.260375 L91.8294991,108.260375 L91.8294991,125.310821 L93.9691822,125.310821 L93.9691822,114.91793 L99.908994,123.23079 L99.9548271,123.23079 L105.986305,114.635317 L105.986305,125.310821 L108.194336,125.310821 L108.194336,108.260375 L108.171017,108.260375 Z M72.4999831,117.059329 C72.4999831,117.943504 72.6551724,118.761467 72.9663552,119.516447 C73.2767339,120.27062 73.7173751,120.937587 74.2866707,121.515732 C74.8551623,122.095493 75.5080832,122.549289 76.2438254,122.876312 C76.9795677,123.204143 77.7804411,123.368059 78.6448377,123.368059 C79.5100384,123.368059 80.3101078,123.204143 81.04585,122.876312 C81.7823964,122.549289 82.4264723,122.09953 82.9804902,121.527844 C83.5345082,120.956159 83.9711289,120.289999 84.2895485,119.527752 C84.6079681,118.765504 84.767982,117.950771 84.767982,117.081938 C84.767982,116.199378 84.6079681,115.37657 84.2895485,114.614323 C83.9711289,113.852075 83.5345082,113.177841 82.9804902,112.590813 C82.4264723,112.004593 81.7751595,111.547568 81.0241396,111.219737 C80.2723156,110.892713 79.4722462,110.72799 78.6223232,110.72799 C77.7571225,110.72799 76.9490122,110.895943 76.1979923,111.231041 C75.4477765,111.566947 74.7948555,112.023165 74.2408376,112.602118 C73.6868197,113.181878 73.2582398,113.856112 72.9550979,114.625627 C72.6519561,115.394335 72.4999831,116.205838 72.4999831,117.059329 L72.4999831,117.059329 Z M70.2244088,117.059329 C70.2244088,115.916765 70.4399049,114.834761 70.8725052,113.814124 C71.3051055,112.793487 71.9073688,111.890741 72.6817074,111.105076 C73.4560459,110.321027 74.3469775,109.708161 75.3561102,109.265669 C76.365243,108.823986 77.4531766,108.60274 78.6223232,108.60274 C79.7601104,108.60274 80.8375908,108.823986 81.8539604,109.265669 C82.8703299,109.708161 83.7701065,110.321027 84.5516818,111.105076 C85.3332572,111.890741 85.9435614,112.793487 86.3842026,113.814124 C86.8240397,114.834761 87.0435563,115.924839 87.0435563,117.081938 C87.0435563,118.240651 86.8240397,119.329923 86.3842026,120.350559 C85.9435614,121.372003 85.3364735,122.266675 84.5629391,123.03619 C83.7886005,123.806513 82.8936485,124.407267 81.877279,124.841684 C80.8601053,125.2761 79.7753881,125.493309 78.6223232,125.493309 C77.4531766,125.493309 76.365243,125.280138 75.3561102,124.853796 C74.3469775,124.427454 73.4560459,123.828314 72.6817074,123.059607 C71.9073688,122.290092 71.3051055,121.39865 70.8725052,120.384473 C70.4399049,119.371911 70.2244088,118.26326 70.2244088,117.059329 L70.2244088,117.059329 Z M55.2072267,123.185572 L57.8703723,123.185572 C58.7653243,123.185572 59.5967532,123.047495 60.3622467,122.772957 C61.1285443,122.499226 61.796743,122.103567 62.3652345,121.584367 C62.9345302,121.067589 63.3783878,120.431306 63.6976114,119.676325 C64.0152269,118.922152 64.1752408,118.058164 64.1752408,117.081938 C64.1752408,116.076643 64.0079901,115.189238 63.6742928,114.419723 C63.3397914,113.650208 62.8854807,113.006658 62.3089483,112.488265 C61.7316117,111.969872 61.0794949,111.578251 60.3509895,111.31098 C59.622484,111.044517 58.8634232,110.911285 58.0754152,110.911285 L55.2072267,110.911285 L55.2072267,123.185572 Z M53,125.310821 L53,108.785227 L57.483605,108.785227 C59.1223402,108.785227 60.5110033,109.033119 61.6479864,109.528096 C62.7865776,110.023072 63.7080646,110.686809 64.4140555,111.516884 C65.1200464,112.346959 65.6314475,113.25778 65.9498671,114.248541 C66.2690908,115.239301 66.4283006,116.236521 66.4283006,117.242624 C66.4283006,118.491773 66.2120004,119.611728 65.7794001,120.602489 C65.3467997,121.592442 64.7557937,122.438666 64.0047738,123.138739 C63.2537538,123.840426 62.3885531,124.377391 61.4091717,124.751248 C60.4305943,125.124297 59.3957307,125.310821 58.3021685,125.310821 L53,125.310821 Z" id="Fill-1" fill="#FEFEFE"></path>
    </g>
</svg>