<svg width="200" height="200" xmlns="http://www.w3.org/2000/svg"><title>Logo_Ursu</title><g fill="#FFF" fill-rule="evenodd"><path d="m45.424 80.659.46-1.56-2.063.116c-.163.003-.354.008-.478-.012.104.056.265.155.407.256l1.674 1.2Zm1.659 2.451-5.172-3.77.304-1.03 6.398-.39-.313 1.063-1.475.074-.634 2.15 1.201.856-.31 1.047ZM48.25 76.19l.882-2.354.913.337-1.252 3.34-5.65-2.097.368-.984zM47.246 73.007c-1.71-.76-2.365-2.338-1.646-3.94.583-1.298 1.778-1.927 3.044-1.588l-.454 1.012c-.724-.097-1.346.282-1.673 1.01-.454 1.011-.003 1.977 1.172 2.499 1.166.52 2.21.21 2.66-.794.333-.742.197-1.486-.331-1.937l.447-.997c1.065.725 1.383 2.072.8 3.368-.717 1.596-2.296 2.136-4.02 1.367M51.098 66.53l.767-1.434-2.044-.3a3.33 3.33 0 0 1-.465-.108c.09.076.228.204.345.332l1.397 1.51Zm1.127 2.735-4.3-4.73.506-.95 6.345.903-.522.98-1.46-.224-1.056 1.978 1.003 1.08-.516.963ZM54.76 62.692l1.313-2.144.83.504-1.861 3.041-5.145-3.123.549-.897zM57.82 59.71l-.585.875-5.023-3.324.586-.876zM58.386 58.821l-4.827-3.588.627-.835 5.112.29-3.42-2.544.62-.829 4.828 3.59-.623.828-5.116-.283 3.42 2.543zM61.138 51.636l1.085-1.215-1.915-.772c-.15-.066-.325-.143-.428-.213.07.094.173.251.258.403l1 1.797Zm.449 2.922-3.062-5.606.717-.804 5.955 2.365-.74.828-1.366-.559-1.495 1.676.719 1.284-.728.816ZM71.99 95.284 71.275 93l1.962 1.346-1.247.937Zm2.652.772 2.252-1.692-.1-.131-.316.239-5.307-3.405-.565.424 1.817 6.029-.324.243.099.13 1.054-.791-.1-.131-.516.388-.593-1.878 1.364-1.025 1.624 1.102-.488.368.099.13ZM79.202 93.62c.259-.112.55-.294.876-.548.325-.253.524-.396.598-.428a.513.513 0 0 1 .49.022l.118-.05-.972-2.221.31-.134-.077-.174-2.278.988.076.173.506-.22.669 1.528c.098.226.132.402.103.527-.03.125-.174.244-.432.356-.37.16-.74.082-1.114-.234-.374-.315-.733-.867-1.078-1.655l-.272-.621c-.686-1.57-.627-2.53.18-2.88.322-.139.677-.12 1.065.059.39.178.824.465 1.305.862l.143-.06-.811-1.682-.088.038a.5.5 0 0 1-.033.16c-.016.034-.05.063-.103.085-.053.024-.26.065-.619.124-.36.06-.701.159-1.023.298-.833.361-1.386.9-1.659 1.618-.272.719-.206 1.54.2 2.467s.946 1.519 1.62 1.775c.674.258 1.44.2 2.3-.173M82.46 91.87c.495.212 1.13.212 1.903.002.776-.21 1.27-.524 1.482-.943.214-.42.227-.972.04-1.657l-1.006-3.688.458-.124-.043-.157-1.215.328.042.157.542-.145 1.022 3.745c.156.575.151 1.037-.016 1.384-.168.348-.478.584-.934.706-.455.123-.808.073-1.056-.15-.249-.224-.442-.59-.58-1.098l-1.06-3.879.542-.146-.043-.157-2.623.709.043.158.458-.124.981 3.596c.213.78.567 1.274 1.063 1.484M87.293 88.832l.425-2.353 1.115 2.095-1.54.258Zm1.992 1.904 2.783-.465-.028-.16-.39.064-3.127-5.46-.697.117-1.188 6.182-.4.067.027.161 1.302-.218-.027-.16-.638.106.346-1.94 1.685-.281.93 1.726-.605.1.027.161ZM97.666 84.378l.26 5.361-.473.024.008.163 2.627-.127-.007-.163-.474.023-.276-5.679.475-.023-.01-.163-2.3.111-.82 4.468-1.36-4.363-2.327.112.008.163.473-.023.277 5.678-.474.024.008.162 1.171-.056-.007-.162-.475.022-.26-5.388.034-.001 1.786 5.477 1.077-.051 1.025-5.587zM102.854 89.76l-.475-.01.118-5.684.474.01.003-.163-2.631-.054-.003.164.473.009-.116 5.685-.474-.01-.004.163 2.63.053zM107.605 84.391l.472.038-.335 4.136-1.905-4.479-2.374-.19-.012.162.473.038-.46 5.667-.473-.038-.013.163 1.178.095.013-.163-.472-.038.435-5.376 2.501 5.776 1.204.096.473-5.83.472.038.014-.163-1.178-.094zM108.416 90.14l-.03.186 4.672.775.377-1.836-.17-.028c-.218.463-.536.82-.953 1.07-.419.25-.888.331-1.41.245l-.324-.054.455-2.719.204.034c.301.049.523.178.666.388.142.21.23.535.261.975l.145.024.419-2.507-.128-.022c-.13.327-.303.576-.517.745a.887.887 0 0 1-.724.19l-.29-.048.438-2.617.3.049c.504.084.869.252 1.095.508.225.255.41.687.552 1.298l.154.024.195-1.69-4.425-.734-.033.186.503.084-.929 5.557-.503-.083ZM117.029 86.063l.274.076c.322.088.536.224.645.405.107.18.1.49-.021.926l-.068.24c-.12.435-.285.729-.491.88-.206.15-.467.183-.783.096l-.266-.074.71-2.55Zm-3.688 4.882-.044.158 2.703.745.043-.157-.54-.149.772-2.772.441.121c.215.06.344.173.384.338.04.166.018.403-.067.712l-.169.604c-.164.585-.179 1.01-.046 1.275.132.266.425.46.88.586.454.126.78.13.978.011.196-.118.39-.403.582-.855l-.137-.056c-.132.28-.238.456-.323.53a.278.278 0 0 1-.274.073c-.1-.028-.15-.096-.154-.204-.003-.107.036-.304.116-.592l.122-.439c.133-.479.14-.846.02-1.099-.122-.253-.397-.471-.83-.656l.008-.026c.486.094.875.071 1.164-.066.289-.137.499-.44.63-.91.13-.468.092-.846-.114-1.135-.093-.138-.28-.286-.56-.445-.283-.157-.784-.336-1.505-.535l-2.51-.693-.044.158.54.149-1.526 5.479-.54-.15ZM122.348 91.752l-1.422-.64 1.67-1.719-.248 2.36Zm1.902-3.376-.645-.29-4.445 4.474-.37-.166-.068.149 1.203.541.068-.148-.59-.266 1.374-1.418 1.556.7-.193 1.95-.558-.252-.068.148 2.444 1.1-.124-.098.08-.101-.123-.055.459-6.268ZM124.153 94.807l-.011-.005.009.007z"/><path d="m123.958 94.898 3.465 2.723 1.38-1.477-.143-.112c-.619.302-1.136.479-1.55.534-.412.054-.812-.07-1.195-.37l-.244-.193 3.508-4.421.717.564.118-.149-2.438-1.916-.118.149.4.313-3.508 4.423-.199-.157-.01-.007-.19-.15-.037.047-.08.101.124.098ZM87.943 96.682l-1.063.001v.147h.427l.006 3.732-2.041-3.877-2.144.004.001.147.427-.001.008 5.117h-.428v.147l1.065-.001v-.147h-.428l-.007-4.854 2.67 4.998 1.088-.002-.008-5.264h.427zM89.036 100.103l.726-2.025.68 2.024-1.406.001Zm1.486 1.985 2.54-.004v-.147h-.358l-1.965-5.306-.636.001-1.973 5.313h-.365v.147l1.188-.001v-.147l-.582.001.595-1.671 1.538-.002.569 1.669h-.551v.147ZM96.393 97.205c.176.25.379.718.607 1.402h.149l-.082-1.94-4.58.008-.075 1.94h.148c.215-.666.413-1.128.595-1.388a.883.883 0 0 1 .768-.393h.1l.01 5.086-.662.001.001.163 2.834-.004v-.163h-.66l-.008-5.085h.093c.332 0 .586.124.762.373M102.418 96.66l-1.133.001v.147h.505l.005 3.493c0 .536-.113.936-.34 1.198-.228.264-.553.396-.978.396-.425 0-.719-.125-.882-.378-.164-.252-.245-.615-.246-1.089l-.006-3.617h.505v-.148l-2.446.004v.147h.427l.005 3.354c0 .727.192 1.239.573 1.538.381.297.933.446 1.655.445.722-.001 1.225-.159 1.51-.474.284-.315.425-.791.425-1.43l-.006-3.44h.427v-.148ZM104.487 99.184l-.004-2.38h.258c.3-.001.518.064.655.195.138.131.207.4.208.808v.223c0 .408-.07.701-.213.882-.142.18-.36.271-.655.272h-.25Zm.828.346c.075.135.114.346.114.634l.001.565c0 .546.09.918.269 1.116.178.198.48.297.905.296.424 0 .708-.076.85-.225.142-.15.24-.444.297-.882l-.132-.015c-.046.274-.096.452-.15.537a.252.252 0 0 1-.22.128c-.095 0-.156-.046-.183-.139-.029-.092-.044-.273-.044-.541v-.41c-.001-.448-.085-.767-.25-.958-.167-.19-.46-.314-.88-.369v-.023c.446-.038.777-.15.994-.338.218-.189.326-.502.325-.94 0-.438-.125-.757-.374-.958-.114-.097-.312-.18-.594-.25-.283-.07-.76-.103-1.434-.102l-2.345.004v.146h.506l.007 5.117h-.504v.147l2.523-.004v-.147l-.505.001-.004-2.589h.413c.2 0 .34.065.415.2ZM108.962 100.073l.726-2.025.679 2.023-1.405.002Zm1.486 1.985 2.539-.004v-.147h-.357l-1.966-5.306-.636.001-1.973 5.313h-.364v.147l1.188-.002v-.146h-.583l.596-1.67 1.538-.003.568 1.67h-.55v.147ZM113.002 102.054l4.115-.006.146-1.81h-.163c-.269.558-.534.97-.794 1.239-.261.269-.612.403-1.053.403l-.28.001-.007-5.07.823-.001v-.17l-2.795.004v.17l.458-.001.008 5.07h-.458v.171ZM96.118 144.252l-.01.055.043.042.61.602c.208.199.395.408.55.64.32.456.564.955.738 1.473.334 1.045.48 2.143.265 3.179-.11.523-.278 1.023-.586 1.452a2.557 2.557 0 0 1-1.235.983c-1.045.404-2.331.056-3.183-.7-1.425-1.188-1.995-3.104-1.867-4.79.09-.833.324-1.721.842-2.3.133-.158.268-.219.51-.455.21-.214.334-.483.415-.715.145-.435.305-.83.483-1.237.366-.796.783-1.593 1.371-2.257l.414-.52c.127-.159.28-.282.454-.396.326-.23.697-.257.955-.044.587.485.09 1.51-.066 2.356-.22.872-.533 1.73-.703 2.632Zm1.404-3.853c.142-.457.154-1.054-.274-1.493a1.164 1.164 0 0 0-.824-.333c-.3-.004-.596.113-.815.24a2.529 2.529 0 0 0-.613.476l-.464.538c-.652.697-1.119 1.518-1.538 2.355-.204.418-.373.868-.518 1.291a1.306 1.306 0 0 1-.259.462c-.077.093-.345.278-.506.478a3.35 3.35 0 0 0-.687 1.337 4.81 4.81 0 0 0-.185 1.42c.039.83.243 1.63.57 2.372a6.84 6.84 0 0 0 1.853 2.489c.87.741 2.095 1.25 3.332.951a3.042 3.042 0 0 0 1.567-.975c.41-.472.655-1.06.785-1.638.048-.204.073-.408.093-.612.087-.988-.145-1.976-.536-2.857a6.122 6.122 0 0 0-.933-1.494c-.362-.445-.814-.78-1.214-1.172.15-.86.49-1.684.748-2.535l.418-1.3ZM108.001 148.594c-.292 1.11-.95 2.075-1.73 2.924a3.853 3.853 0 0 1-1.358.957c-.525.224-1.098.34-1.672.257-1.164-.14-2.12-1.186-2.319-2.333a5.81 5.81 0 0 1-.053-1.696 5.289 5.289 0 0 1 .476-1.611 6.13 6.13 0 0 1 .922-1.396c.348-.438.8-.792 1.229-1.163l.126-.11-.017-.176c-.061-.652-.275-1.223-.43-1.783-.162-.565-.362-1.134-.514-1.69-.048-.263-.127-.546-.166-.792-.013-.225.033-.495.135-.612.103-.137.286-.21.494-.189.197.016.45.148.639.299.367.381.803.825 1.163 1.272.347.469.668.96.946 1.477.28.521.503 1.049.723 1.618.062.146.156.292.277.409l.348.295c.212.196.395.423.539.672.285.501.38 1.087.418 1.665a5.491 5.491 0 0 1-.176 1.706m.432.086a6.24 6.24 0 0 0 .022-1.817c-.083-.59-.193-1.198-.502-1.74a3.064 3.064 0 0 0-.56-.74c-.244-.226-.46-.366-.546-.634a14.88 14.88 0 0 0-.606-1.684 10.92 10.92 0 0 0-.85-1.611c-.157-.263-.38-.483-.568-.727-.21-.241-.364-.47-.623-.721-.275-.228-.572-.417-.988-.482-.399-.062-.874.08-1.147.42-.281.355-.314.714-.319 1.068.038.338.106.631.166.95.161.584.342 1.14.522 1.708.164.518.343 1.018.43 1.498l-.506.493a6.461 6.461 0 0 0-.557.708 6.57 6.57 0 0 0-.784 1.602c-.304.904-.352 1.847-.256 2.765.024.227.05.453.089.675.104.589.373 1.148.757 1.622.375.484.926.868 1.56 1.028 1.282.33 2.709-.17 3.59-1.121a6.402 6.402 0 0 0 1.475-2.448c.085-.267.158-.537.201-.812M114.8 153.737c-.118.81-.51 1.553-1.017 2.156-.51.598-1.179 1.093-1.926 1.317-.74.242-1.562.222-2.263-.085-.704-.3-1.252-.917-1.543-1.626-.276-.71-.321-1.552-.152-2.327a4.179 4.179 0 0 1 1.226-2.091c.603-.581 1.437-.898 2.277-.99l.094-.01.033-.1.823-2.44c.118-.39.333-.769.554-.99.211-.185.561-.2.772.002.218.196.368.634.482 1.017.11.397.16.815.178 1.239.02.425.01.855-.054 1.278l-.08.637c-.051.209-.033.465.114.645.484.694.62 1.568.482 2.368m-.51-2.997.082-.436.037-.202c.086-.425.18-.85.212-1.285.041-.435.054-.88-.003-1.33-.074-.445-.117-.892-.501-1.348-.409-.445-1.21-.471-1.65-.049-.401.4-.565.836-.68 1.267l-.545 2.463c-.005 0-.011.003-.017.004-.831.184-1.625.539-2.263 1.088-.653.589-1.171 1.319-1.46 2.155-.28.84-.325 1.751-.043 2.631a3.556 3.556 0 0 0 1.815 2.065c.871.433 1.928.46 2.831.152a4.375 4.375 0 0 0 2.197-1.656c1.018-1.508 1.055-3.513.076-4.93-.13-.172-.14-.382-.088-.589M91.088 156.618c-.59.698-1.546 1.058-2.442.978-.898-.065-1.718-.507-2.334-1.078-.592-.582-1.082-1.353-1.288-2.138a3.788 3.788 0 0 1 .171-2.416 2.77 2.77 0 0 1 .14-.272c.058-.091.14-.238.18-.375.095-.283.061-.603.008-.823-.097-.435-.175-.87-.221-1.306-.09-.862-.09-1.776.254-2.569.145-.366.655-.495 1.021-.308.368.175.555.644.686 1.043l.622 2.647.03.126.16.039c.708.17 1.365.457 1.914.867.547.415.981.962 1.314 1.58a3.86 3.86 0 0 1 .508 2.013c-.004.713-.235 1.437-.723 1.992m-.7-6.078c-.098-.073-.204-.13-.307-.193a4.825 4.825 0 0 0-1.776-.619c-.294-.8-.575-1.618-.817-2.439a2.902 2.902 0 0 0-.29-.642c-.106-.199-.273-.423-.51-.54-.46-.26-1.138-.105-1.403.378-.453.857-.558 1.81-.543 2.739.017.464.068.926.137 1.38.04.219.041.366-.012.515-.03.079-.06.133-.127.233-.069.106-.13.216-.187.328-.02.044-.03.09-.05.134-.38.873-.477 1.83-.233 2.751.125.48.343.929.612 1.335.267.404.578.787.976 1.105.784.627 1.8.949 2.787.894a3.575 3.575 0 0 0 2.5-1.237c.508-.56.765-1.284.894-2.015a4.249 4.249 0 0 0-.245-2.244c-.284-.708-.746-1.39-1.407-1.863M150.86 74.774c.387-1.14 1.008-1.396 2.043-.752.551.344 1.019.817 1.532 1.221.3.237.619.451.928.675.255-.409.567-.797.743-1.237.104-.26.058-.62-.027-.906a1354.835 1354.835 0 0 0-3.16-10.422c-.03-.103-.205-.164-.326-.24-.72 4.026-1.443 8.055-2.165 12.083.284-.106.377-.258.432-.422M119.57 76.422c-.283.196-.458.54-.682.816.286.206.544.506.864.604 3.82 1.164 7.626 2.37 11.481 3.409 1.9.513 3.888.726 5.845 1.026.767.118 1.324-.076 1.345-1.051.016-.791.253-1.579.399-2.366.356-1.933.715-3.863 1.092-5.896-.654-.074-1.238-.171-1.824-.2-3.777-.186-7.556-.37-11.335-.514-.358-.014-.729.251-1.094.387.176.34.262.805.544.997 1.172.8 2.403 1.519 3.552 2.23-1.814-.033-3.8-.113-5.783-.09-1.492.015-3.06-.285-4.405.648M148.168 82.69l-6.716-11.264-2.308 10.78c2.324 1.205 7.85 1.508 9.024.484M123.306 43.847c.004.155-.017.251.012.332 2.433 6.726 5.33 13.244 9.28 19.269.597.911 1.397 1.815 2.323 2.377 1.946 1.183 3.978 2.275 6.086 3.15 2.595 1.079 5.303 1.898 8.013 2.846l.358-.867c-1.545-.53-3.101-.94-4.545-1.589-1.945-.873-3.786-1.963-5.702-2.9-2.686-1.315-4.624-3.363-6.26-5.766a72.677 72.677 0 0 1-7.805-14.95c-.33-.862-.82-1.5-1.76-1.902M149.911 78.504c.416.328.807.687 1.208 1.033l-.121.154-3.024-.427 1.616 2.532c1.135-.826 2.214-1.57 3.23-2.39.162-.13.18-.709.03-.879a14.01 14.01 0 0 0-1.773-1.638c-.376-.298-.818-.833-1.337-.147-.454.602-.365 1.339.171 1.762"/><path d="m151.62 75.232 2.136 2.67.33-.024c.014-.327.116-.68.025-.974-.156-.495-.41-.967-.667-1.424-.555-.982-.992-1.025-1.825-.248M148.992 77.81l.547-2.113-5.114-2.107c.94 2.218 2.346 3.72 4.567 4.22M107.442 25.563c.653.548 1.427 1.001 2.218 1.34 1.12.48 2.313.798 3.462 1.221 3.594 1.326 5.476 3.987 6.154 7.578.042.22.16.425.241.638l.246-.052c-.018-.69.105-1.42-.083-2.064-.57-1.95-1.247-3.87-1.915-5.792-.159-.458-.356-.957-.687-1.296-1.303-1.337-2.6-2.692-4.027-3.9-1.545-1.308-4.21-1.012-5.6.47-.611.65-.686 1.288-.009 1.857M116.812 39.79l-1.042 2.5.284.205 1.9-1.546-1.142-1.158M116.818 39.787l9.702 4.728c-.922-2.307-5.579-6.71-7.923-7.335.348 1.799.047 2.24-1.78 2.607M74.795 57.773c.469-.013.91-.01 1.347-.038 2.465-.161 2.84.264 2.558 2.616-.343 2.844-1.937 5.02-3.724 7.137-.367.436-.692 1.095-.656 1.627.083 1.265-.46 2.149-1.41 2.849-.925.684-1.494 1.411-.981 2.62.172.406.077.916.123 1.376.064.639.147 1.275.248 2.135l1.449-2.45 1.09 2.127c.282-.544.574-.957.72-1.415.912-2.833 2.776-4.737 5.683-5.644.78-.243.99-.75 1.01-1.528.061-2.352.64-4.579 2.05-6.531.4-.555.913-1.032 1.375-1.545l.216.132a13036.1 13036.1 0 0 1-.757 5.713l1.271-.951.157 5.624c.287-.75.548-1.429.81-2.108l.331.012c.45 1.83.796 3.708 2.204 5.2l1.47-2.336 2.278 5.163c.281-.402.445-.665.64-.904.215-.264.437-.53.693-.756.847-.744 1.487-.689 2.272.13.321.333.662.673 1.057.91.785.475 1.47.17 1.557-.727.061-.634-.072-1.286-.109-1.93-.022-.371-.023-.744-.038-1.272 2.126 1.044 2.761 2.955 3.836 4.885l1.265-6.278 2.37 5.054.465-.014c.304-.848.822-1.685.862-2.545.08-1.649.12-3.36-.238-4.956-1.007-4.479-2.112-8.944-3.388-13.358-1.86-6.442-2.747-12.888-1.2-19.528.41-1.758.54-3.594.63-5.403.06-1.23-.654-1.795-1.93-1.721-2.046.12-3.956.803-5.41 2.168-3.422 3.211-6.36 6.774-7.511 11.432-.121.491-.311.966-.47 1.448l-.165-.024-.73-2.88c-.332.395-.474.79-.527 1.195-.173 1.314-.267 2.64-.483 3.946-.137.826-.286 1.7-1.038 2.223l-1.208-1.472c-.409 1.573-.25 3.018-1.493 3.898-.034-1.274-.076-2.502-.1-3.73-.028-1.373.152-1.528 1.563-1.37-.052-.58-.104-1.156-.165-1.853 1.547.115 1.656-.965 1.717-1.99.084-1.415.7-2.572 1.473-3.735.533-.804.822-1.774 1.134-2.698.097-.283-.089-.657-.145-.99l-.321-.116c-.06.14-.145.277-.174.424-.353 1.78-1.736 2.651-3.21 3.403-1.25.638-2.1 1.6-2.53 2.867-.517 1.516-.872 3.083-1.377 4.604a17.779 17.779 0 0 1-1.164 2.693c-.938 1.773-1.318 3.681-1.671 5.583l2.056.372.888-1.95a9.555 9.555 0 0 1-.083 1.76 9.9 9.9 0 0 1-.197 1.093c-.165.679-.602.917-1.273.671-.467-.17-.917-.382-1.417-.595-.09.295-.17.554-.247.813-.089.29-.176.58-.262.866-2.341-.487-2.532-.454-3.066.572M114.567 49.003c-.003.299.537.677.911.86.124.06.622-.328.744-.6.41-.9-.048-1.907-1.241-2.815-.161.886-.407 1.72-.414 2.555M117.497 45.125c.145-.41-.815-1.201-1.295-1.806-.105-.133-.29-.207-.526-.368l-.693 3.388c1.082-.223 2.21-.357 2.514-1.214"/><path d="M163.32 78.502c-.71 1.088-1.367 2.209-2.067 3.303-.155.243-.473.628-.625.59-.685-.168-.864.327-1.16.693-.371.46-.709.952-1.12 1.374-.543.557-.946.475-1.317-.191-.08-.142-.17-.277-.264-.423-.916 1.184-1.761 2.338-2.674 3.439-.824.994-1.151.977-2.106-.07l-2.474 2.863c-.683-.463-1.24-.86-1.818-1.224-.192-.121-.507-.289-.645-.216-.832.438-1.462.021-2.095-.396-.927-.61-1.842-1.236-2.866-1.925-.053.51-.103.873-.125 1.238-.063 1.046-.29 1.241-1.259.804-1.141-.515-2.24-1.129-3.325-1.753-2.822-1.622-5.792-2.857-9.029-3.427-.48-.085-.966-.119-1.45-.176.003-.1.008-.2.012-.299.483-.013.976-.094 1.448-.028 3.192.449 6.096 1.756 9.031 2.962 1.096.45 2.17.953 3.3 1.45.194-.727.365-1.37.575-2.166 1.312.642 2.54 1.248 3.775 1.842.244.118.573.334.755.257.827-.344 1.374.075 1.958.522.619.473 1.27.907 2.006 1.43.425-.764.843-1.515 1.258-2.267.767-1.385 1.265-1.502 2.52-.555.205-.269.436-.523.611-.81.583-.951 1.174-1.899 1.708-2.876.719-1.316 1.191-1.372 2.052-.18.037.051.067.105.104.155.583.811.837.831 1.463.032.363-.463.682-.965.968-1.478.647-1.157 1.227-2.35 1.897-3.495 1.025-1.753.905-2.079-1.113-2.636-.021-.005-.054.024-.081.036.58.764.332 1.139-.772 1.821-1.156.715-2.44 1.42-3.246 2.446-1.508 1.92-3.417 3.145-5.636 4.038-.263.105-.536.21-.76.37-.209.15-.432.349-.522.573-.419 1.05-.926 1.206-1.966.771-.822-.344-1.71-.648-2.591-.732-3.83-.369-7.672-.599-11.5-.976-4.305-.426-8.336-1.869-12.38-3.296-4.35-1.535-7.322-4.394-9.39-8.369-1.937-3.723-2.797-7.77-4.043-11.706-.934-2.953-.824-6.1-2.102-9.011-.888-2.024-.488-4.318-.29-6.503.057-.634.165-1.263.284-2.143.633 3.42-.491 6.788 1.235 9.527 3.078.51 5.956.985 8.994 1.487-2.252-3.893-6.41-5.704-9.571-8.828l4.673.203-2.037-4.149 2.912.363c-.487-1.329-.919-2.506-1.364-3.724l4.043 2.198.23-.256-1.984-2.417c.976.503 1.795 1.164 2.636 1.795.226.17.682.415.757.345.248-.23.58-.668.497-.886-.252-.66-.55-1.413-1.078-1.839-.734-.594-1.706-.905-2.551-1.378-.512-.286-.978-.65-1.465-.979l.192-.303 5.011 2.483.218-.346c-1.29-.856-2.539-1.779-3.88-2.547-1.191-.682-2.401-.478-3.388.48-2.371 2.3-4.326 4.828-4.548 8.265-.048.737-.219 1.47-.232 2.206-.038 2.123-.434 4.338.04 6.353 1.464 6.21 3.367 12.32 4.91 18.515 1.393 5.595 4.735 9.713 9.496 12.88.41.272.875.512 1.35.636 4.73 1.239 9.328 2.824 13.77 4.85 3.842 1.753 7.822 3.09 12.024 3.788 2.571.427 5.086.556 7.221-1.15 1.304-1.043 2.405-2.33 3.583-3.522.23-.233 1.6-1.432 1.928-1.793 0 0 2.257-2.389 3.134-3.567 1-1.344 1.082-2.074 1.363-2.612-.13-.03-.26-.063-.388-.094-.182-.043-.527.154-.645.334M58.957 100.519c-.615-1.184-1.156-2.43-1.788-3.703 1.171-.21 1.52-.86 1.515-1.903-.018-3.082.1-6.165.084-9.247-.005-1.06-.257-2.12-.384-3.182-.113-.946-.294-1.895-.29-2.841.006-1.07.935-1.644 1.986-1.338.254.073.495.19.792.306.077-1.331.15-2.58.23-3.983l.683.882c.281-.95.503-1.778.778-2.59.278-.824.611-1.63.983-2.61l.834.936c.487-1.782.948-3.463 1.409-5.144l.164.04.245 8.797 2.094-4.122c.185.663.18 1.27.225 1.875.045.61.14 1.217.21 1.826l.365.042c.495-1.176.99-2.35 1.538-3.658l.262.408 3.175-2.53c-.033-1.187.044-2.678-.153-4.134a9.656 9.656 0 0 0-1.045-3.227c-.301-.56-.27-.917-.173-1.467.152-.853.149-1.745.082-2.612-.02-.26-.471-.488-.725-.73-.184.301-.459.584-.53.91-.099.457-.047.947-.062 1.484l-1.647-.46-.403 1.457-2.05-.314c-.312 1.028-.605 1.99-.938 3.091-1.526-3.402-.785-4.562 1.541-4.466.035-.146.081-.293.103-.443.194-1.308.193-1.32 1.527-1.33 1.313-.013 2.194-.647 2.781-1.75.157-.296.35-.573.527-.859l.173.083.242 2.625c1.625.201 2.039-.622 2.371-1.796.415-1.474 1.107-2.873 1.682-4.304.116-.29.248-.574.372-.86a28.821 28.821 0 0 0-.23-.201c-2.372 1.393-4.737 2.799-7.12 4.176-3.553 2.054-5.693 5.134-6.55 8.999-.324 1.46-.972 2.282-2.396 2.606-.515.117-.652.407-.624.936.096 1.9.123 3.804.177 5.773l-2.196-.548c-.405 1.823-.801 3.606-1.2 5.395l-1.18-.377 1.147 3.296c-.518.25-1.019.441-1.458.724-.218.14-.489.47-.456.67.146.871-.312 1.469-.8 2.087-.437.557-.847 1.136-1.276 1.716l1.522 1.56-2.672 1.94 1.913 4.512-11.56.308.975 1.087c-1.954.628-3.77 1.241-5.608 1.788-.788.234-1.222.721-1.566 1.46.297-.061.497-.103.622-.13-1.418 1.653-2.922 3.274-4.268 5.012-1.092 1.409-.965 2.543.45 3.632.897.693 1.069 1.453 1.083 2.452.02 1.45.172 2.899.28 4.544l1.031-1.457 2.494 6.497.81-1.333c.825 1.21 1.511 2.486 2.465 3.527.718.783 1.699 1.543 2.706 1.82 1.965.543 3.63 1.532 5.306 2.579 1.079.673 2.218 1.252 3.314 1.865.133-.216.258-.43.387-.645-1.506-1.68-3.49-7.595-5.271-7.923-1.56-.288-3.081-.792-4.619-1.2l.03-.28c1.075-.465 2.17-.892 3.22-1.407 1.296-.633 2.596-1.273 3.817-2.03 1.595-.988 2.168-2.05 2.478-3.868.07-.412-.027-.974-.284-1.271-.15-.172-.785-.003-1.178.099-.728.188-1.056.078-1.791.23-.97.2-1.203-.096-.913-1.018.246-.789.493-1.577.747-2.385l-4.301.115c.348-.621.69-1.227 1.181-2.099l-5.368 2.51.738-1.853c-.1-.08-.202-.16-.303-.238-2.415.996-3.686 3.274-5.537 5.097-.772-2.623-.829-5.12.481-7.49 1.842-3.33 4.984-4.854 8.607-5.59 1.669-.339 3.35-.432 5.011-.083.327.068.651.154.976.258.328.105.656.228.957.39 1.596.86 1.779 1.627.751 3.086-.485.69-.983 1.373-1.474 2.059l.18.172c.357-.166.701-.359 1.069-.492.854-.306 1.704-.645 2.585-.856.397-.095 2.116.203 3.904.638M93.471 114.095c.003 1.984-.325 3.416-.985 4.296-.659.88-1.673 1.321-3.042 1.323l-1.154.001-.017-11.601 1.189-.002c1.393-.002 2.408.316 3.046.956.637.639.958 1.951.961 3.935l.002 1.092Zm9.968 14.638h-.004l.001-.004-.613-.075c-.214 1.332-.447 2.205-.698 2.62-.252.414-.594.622-1.026.623a.832.832 0 0 1-.536-.169c-.14-.112-.242-.28-.308-.504-.134-.451-.2-1.33-.202-2.636l-.004-1.997c-.003-2.185-.39-3.741-1.16-4.67l-.004-.004c-.77-.926-2.127-1.527-4.072-1.8v-.11c2.066-.179 3.603-.727 4.61-1.646 1.008-.917 1.51-2.444 1.507-4.579-.003-1.87-.447-3.295-1.333-4.277a4.343 4.343 0 0 0-.407-.395c-.53-.476-1.45-.884-2.759-1.22-1.31-.337-3.527-.503-6.65-.499l-10.882.017.001.716h.002v.004l2.34-.003.039 25.309-2.342.004.003.339v.38l11.713-.017-.004-.72-2.34.003-.02-12.991 1.91-.003c.702-.001 1.239.181 1.61.547.124.122.23.263.316.425.35.653.526 1.682.528 3.088l.004 2.75c.005 2.662.422 4.476 1.252 5.441l.003.004c.83.967 2.23 1.448 4.2 1.444 1.97-.003 3.285-.369 3.944-1.098.66-.73 1.12-2.161 1.381-4.297ZM145.018 107.307l-5.262.008.002.716h.003v.004l2.34-.003.025 17.022c.005 2.612-.52 4.558-1.576 5.841-1.056 1.282-2.568 1.925-4.537 1.929-1.722.002-2.981-.466-3.777-1.405a3.6 3.6 0 0 1-.313-.431c-.76-1.23-1.14-3-1.144-5.31l-.027-17.629 2.342-.003-.001-.717h-.003v-.004l-11.351.018v.715h.004v.005l1.98-.003.024 16.343c.005 3.101.685 5.402 2.04 6.902.195.215.403.413.623.595 1.768 1.454 4.329 2.179 7.679 2.173 3.352-.005 5.687-.774 7.006-2.308 1.319-1.534 1.976-3.858 1.971-6.971l-.026-16.764 1.982-.003v-.716h-.004v-.004Z"/><path d="M78.445 107.413h-.003v-.004l-5.261.008v.715h.004v.005l2.34-.004.026 17.022c.004 2.613-.522 4.56-1.576 5.842-1.056 1.282-2.569 1.925-4.538 1.928-1.722.002-2.98-.466-3.777-1.404a3.62 3.62 0 0 1-.313-.432c-.76-1.229-1.14-2.998-1.144-5.31l-.027-17.629 2.342-.003v-.716h-.004v-.004l-11.351.017.001.716h.003v.004l1.98-.003.025 16.344c.004 3.1.684 5.401 2.04 6.901.194.215.402.414.623.596 1.767 1.454 4.328 2.178 7.679 2.173 3.35-.005 5.686-.774 7.005-2.309 1.319-1.533 1.976-3.857 1.971-6.971l-.025-16.763 1.982-.003-.002-.716ZM120.282 119.571l-.003-.004c-.468-.43-.914-.789-1.335-1.073-.42-.284-.962-.555-1.623-.813a34.732 34.732 0 0 0-1.659-.61c-.444-.148-1.375-.418-2.793-.812-1.42-.393-2.614-.906-3.588-1.534a3.513 3.513 0 0 1-.637-.521c-.547-.574-.822-1.3-.824-2.181-.001-1.174.405-2.115 1.221-2.821.815-.706 1.962-1.06 3.44-1.062 1.477-.003 2.847.644 4.109 1.939 1.263 1.296 2.472 3.018 3.629 5.167h.002l.001.004h.576l-.263-7.494h-.003v-.004l-.397.001c-.264.495-.564.743-.9.743-.336 0-1.195-.19-2.578-.571-1.381-.381-2.709-.57-3.983-.569-2.642.004-4.725.8-6.248 2.384-1.523 1.585-2.283 3.479-2.28 5.68.004 2.36.578 4.18 1.722 5.457.163.183.339.354.525.515.745.643 1.534 1.16 2.363 1.555.83.394 2.164.856 4.002 1.384 1.84.53 3.257 1.152 4.255 1.867.249.178.465.376.652.593.562.655.844 1.487.846 2.498.002 1.348-.46 2.356-1.383 3.026-.925.668-1.987 1.004-3.188 1.006-1.826.003-3.563-.798-5.211-2.403-1.647-1.604-3-3.48-4.06-5.628h-.001l-.002-.005-.613.002.374 8.828h.003v.004l.506-.001c.31-.743.634-1.114.97-1.114.192 0 1.172.183 2.938.552 1.767.368 3.335.551 4.704.549 2.643-.004 4.773-.817 6.393-2.44 1.62-1.622 2.426-3.768 2.423-6.44-.003-1.632-.33-3.04-.98-4.226a5.105 5.105 0 0 0-1.102-1.428M147.755 109.768c-.636.001-1.102-.495-1.103-1.12 0-.617.464-1.124 1.09-1.125.629 0 1.087.504 1.087 1.13.001.616-.454 1.114-1.074 1.115m-.013-2.527c-.808 0-1.453.627-1.452 1.407.001.796.648 1.42 1.456 1.42.819-.002 1.446-.628 1.445-1.424-.002-.78-.63-1.404-1.449-1.403"/><path d="M147.684 108.586h-.154v-.403a.825.825 0 0 1 .18-.018c.206 0 .301.085.301.214 0 .146-.145.207-.327.207m.388.102v-.017c.171-.052.293-.172.293-.327a.387.387 0 0 0-.14-.307c-.102-.06-.222-.103-.49-.102-.231 0-.413.017-.542.043l.002 1.405h.327v-.565l.155-.001c.18 0 .266.068.292.222.044.163.07.291.113.343h.353c-.035-.052-.061-.138-.104-.353-.044-.187-.121-.29-.26-.341M102.444 167.697l-.01.021c-.54 1.292-1.396 1.948-2.617 2.005l-.124.002c-1.217 0-2.164-.602-2.816-1.79-.695-1.234-.898-2.658-.946-3.636-.014-.282-.01-.584-.004-.87.042-3.113 1.277-6.525 3.2-6.616l.076-.002c1.007 0 1.81.968 2.305 1.78.356.62.653 1.313.902 2.104.482 1.584.538 2.685.564 3.215.075 1.529-.098 2.767-.53 3.787m-2.946-12.504c-.12 0-.241.002-.363.008-2.197.106-4.032 1.091-5.31 2.85a8.628 8.628 0 0 0-1.269 2.705c-.32 1.206-.441 2.297-.359 3.248l.005.057c.18 3.647 2.475 7.588 7.085 7.588.13 0 .26-.003.393-.01a5.07 5.07 0 0 0 2.812-1.006c-.695 3.543-2.425 7.149-4.348 7.65a.52.52 0 0 0-.374.574c.033.26.245.455.495.455h.007l.176-.003c1.855 0 3.463-.708 4.787-2.105 2.726-2.876 3.761-8.374 3.569-12.268-.303-6.1-3.034-9.743-7.306-9.743"/><path d="m73.382 166.642 1.638.844c.591.305 5.867 3.027 9.02 4.74 1.635.887 3.551 1.76 5.697 2.592l.092.036.03.093c1.588 4.913 5.7 8.211 10.234 8.211h.014a9.59 9.59 0 0 0 3.906-.84c3.678-1.61 6.328-5.397 6.916-9.882l.018-.137.132-.036c.354-.096.648-.178.855-.235 1.61-.45 3.152-1.02 4.582-1.694a22.01 22.01 0 0 0 2.591-1.417l.074-.048.086.02c1.686.4 3.22.667 3.91.78l-.003-.005.074.005c-.361-.793-1.339-2.907-2.303-4.722-.241-.457-.12-.67.027-.77l.05-.024c.544-.183 2.046.543 4.28 1.677 1.008.511 2.24 1.137 2.643 1.219-.468-1.35 1.074-4.527 1.397-5.167l.188-.372.63 1.299c.792 2.267.835 5.027.818 6.114l2.016-1.706c.019-.02 3.162-3.173 3.869-4.585.188-.375.37-.84.558-1.422l.074-.228.004.002.057-.211c.09-.305.167-.593.233-.851l1.406-5.17.251.243c3.16 3.06 5.523 5.124 6.017 5.257.264.07.488.05.688-.065.201-.098.329-.258.392-.354l-.477-.902c-.047-.084-.471-.989-.331-5.487.135-4.356 2.582-11.122 2.86-11.879l.137-.37.226.323c.356.508 3.53 5.026 5.301 6.887 1.217 1.274 1.58 1.123 1.62 1.102a.16.16 0 0 0 .063-.078c-.201-.832-2.652-10.925-3.122-12.97-.497-2.154-.106-5.524-.09-5.666l.054-.45 1.92 2.12.042-1.319c.05-1.605-.371-4.522-1.255-8.668-.403-1.89-.89-3.98-1.448-6.211l-.07-.277 1.087.08.058-4.96c.015-1.232.323-2.609.621-3.941.3-1.343.612-2.732.626-3.98l.413.002c.001.92.042 1.818.472 2.645.13-.538.343-1.289.57-2.077l.064-.226 2.134.92.304-2.298 1 1.753.692-5.212.22.049c.388.088.674.065.848-.061.278-.201.326-.695.373-1.173.066-.68.157-1.353.252-2.066.042-.317.086-.64.129-.974l.043-.34 3.727 2.62-.093-3.34.29-.898 1.333 1.538-.546-6.551 1.53 1.322-.328-1.349a542.102 542.102 0 0 0-.884-3.605l-.052-.202c-.127-.518-.26-1.053-.477-1.532-.134-.29-.157-.535-.072-.745.115-.287.4-.432.638-.527.646-.257 1.296-.504 1.947-.752l.612-.233a13.554 13.554 0 0 0-1.48-1.333l-.014-.011c-1.226-.927-2.42-1.3-3.764-1.172l-.241.023.016-.242c.108-1.674-.064-1.966-1.53-2.598-.754-.324-1.545-.607-2.31-.88l-.687-.248c-.44-.16-.879-.324-1.312-.503-.396-.164-.853-.61-1.04-1.014-.663-1.446-1.315-2.926-1.945-4.357-.482-1.091-.964-2.184-1.454-3.273-.162-.36-.432-.695-.692-1.018l-.033-.04a2.204 2.204 0 0 0-.335-.035c-.41.991-.778 1.998-1.166 3.06a77.737 77.737 0 0 1-1.285 3.356l-.067.162-.172-.04a32.325 32.325 0 0 0-.434-.102 17.943 17.943 0 0 1-.978-.24c-.56-.16-1.12-.324-1.68-.488-.481-.14-.961-.282-1.442-.42l-.281-.081c-.164-.048-.328-.095-.492-.14-5.186-1.415-9.204-4.65-12.282-9.888-.352-.601-.692-1.21-1.031-1.817l-.148-.264c-1.223-2.185-2.407-4.437-3.553-6.616a480.946 480.946 0 0 0-1.882-3.56.648.648 0 0 1-.057-.28 5.192 5.192 0 0 0-.02-.233l-.058-.48 3.904 2.948-.014-.035a6.174 6.174 0 0 0-.286-.691c-1.4-2.726-3.353-5.251-5.973-7.722-.553-.52-1.171-1.443-1.407-2.101a223.557 223.557 0 0 1-1.353-3.938c-.59-1.749-1.199-3.558-1.858-5.313-1.213-3.235-3.816-5.35-7.959-6.47-1.27-.343-2.76-.839-4.165-1.917a9.357 9.357 0 0 0-1.958-1.145l-.07-.045c-.085-.054-.565-.31-2.609-.887-3.343-.944-6.63.11-8.293.822-.079.032-.149.064-.219.096l-.072.034c-.297.136-.496.239-.57.278l-.024.015c-1.335.788-2.049 2.02-2.185 3.764-.258 3.342-1.836 6.298-3.503 8.994-1.785 2.89-3.254 5.989-4.675 8.984l-.62 1.304a3.689 3.689 0 0 1-1.002 1.273l-1.332 1.074a3174.24 3174.24 0 0 1-11.74 9.472l-.527.425c-1.974 1.585-2.913 3.852-3.704 6.037-.173.478-.319.976-.46 1.458-.08.278-.162.557-.249.834-.284.907-.83 1.448-1.718 1.703-.582.167-.774.46-.76 1.163.02 1.084-.017 2.16-.055 3.298-.017.474-.033.956-.046 1.45l-.007.289-2.059-.763-1.756 5.561-1.438-.047 1.81 3.73-3.4.09.238.464c.282.547.525 1.019.706 1.526.128.36.14.946-.09 1.324-.491.814-1.041 1.609-1.573 2.377-.164.236-.327.473-.489.71.436.324.66.653.666.979.003.182-.064.45-.402.69-.358.257-.745.476-1.119.687l-.34.195c.132.38.388.709.656 1.055.47.606.955 1.23.738 2.143l-.035.15-12.336.763 1.829 1.15-.309.17c-.178.097-.335.193-.478.281-.294.181-.548.337-.836.408-1.482.367-2.974.708-4.554 1.069l-1.235.283 1.53.894-2.85 2.546 1.86-.05.004.208c0 .037.003.065.005.086.004.054.014.18-.1.251-3.287 2.034-3.854 5.296-4.215 9.037-.023.225-.065.448-.108.671-.02.102-.04.203-.057.305l.01.172 2.325-1.324 1.157 8.302 2.032-1.411 1.928 7.315c.395-1.755.568-2.058 1.331-2.416l.154-.072 3.507 4.844.119-1.93.507-.16.119.1.443.542a54.87 54.87 0 0 1 1.267 1.583c.158.208.092.557.036.713-.154.425-.306.851-.458 1.277-.524 1.467-1.066 2.985-1.676 4.449-.202.484-.55.905-.919 1.35l-.11.135 4.732-1.629-1.127 4.835c-.328 1.162-.524 2.046-.553 2.497-.06.956 0 2.82.181 3.967.184 1.166.668 2.59.771 2.797l.227.453.979-2.267 2.208-3.794.466.152-.047.339c-.429.884-2.352 5.591 1.922 11.438l.04.108.044.016 1.03 1.83 1.005-6.965.118 2.044c.063 1.085.263 2.182.61 3.353.648 2.184 1.73 4.265 2.827 6.28l.48.818c.37.629.692 1.146 1.015 1.627 2.497 4.099 8.067 10.702 17.496 9.35l-1.329-1.98-1.894-1.593Zm26.71 16.93c-4.684 0-8.93-3.372-10.595-8.404-2.125-.83-4.027-1.697-5.654-2.58-2.432-1.32-6.13-3.243-7.961-4.19l1.427 2.124-.319.052c-4.234.68-12.233.357-18.228-9.486-.1-.147-.199-.298-.3-.455l.091.349-.938-1.698c-1.225-2.242-2.492-4.56-3.224-7.027a16.549 16.549 0 0 1-.441-1.861l-.66 4.571-1.564-2.757-.112-.041-.037-.211c-3.385-4.658-2.955-8.634-2.38-10.622l-1.44 2.469-1.318 3.06-.623-1.248c-.123-.247-.62-1.714-.81-2.917-.185-1.174-.246-3.08-.185-4.057.04-.615.33-1.739.566-2.574l.955-4.098-5.32 1.83.395-.533c.186-.252.375-.481.556-.7.364-.44.677-.819.855-1.246.606-1.454 1.147-2.966 1.67-4.43.151-.425.303-.852.458-1.277.048-.13.047-.286.024-.324-.406-.531-.84-1.06-1.258-1.57l-.356-.435-.172 2.796-3.98-5.498c-.52.268-.627.548-1.132 2.89l-.183.843-2.214-8.406-2.1 1.459-1.165-8.365-2.393 1.361-.027-.898c.02-.145.04-.249.06-.354.041-.21.082-.422.103-.634.359-3.712.92-6.969 4.043-9.11l-2.302.061 3.268-2.919-1.94-1.132 2.251-.516c1.578-.361 3.069-.702 4.547-1.068.225-.055.443-.19.718-.358.063-.04.128-.08.196-.12l-1.627-1.023.103-.49 12.5-.773c.09-.643-.274-1.111-.69-1.647-.315-.406-.64-.827-.774-1.354l-.038-.15.133-.078c.159-.095.322-.187.486-.28.364-.206.741-.42 1.083-.664.154-.11.23-.226.228-.346-.003-.213-.242-.491-.653-.763l-.174-.114.118-.174c.2-.294.403-.587.605-.881.529-.763 1.075-1.553 1.56-2.356.14-.229.163-.664.054-.972-.171-.48-.409-.941-.684-1.475-.122-.238-.252-.489-.385-.76l-.141-.288 3.405-.091-1.83-3.769 1.808.059 1.794-5.675 1.923.713.038-1.165c.039-1.134.075-2.204.055-3.277-.012-.622.104-1.294 1.06-1.568.752-.216 1.194-.658 1.437-1.43.087-.274.167-.55.248-.826.142-.488.29-.993.466-1.482.812-2.241 1.777-4.567 3.835-6.219l.527-.425c3.992-3.205 7.94-6.392 11.738-9.47l1.331-1.074c.376-.307.684-.697.891-1.13l.619-1.304c1.425-3.006 2.9-6.114 4.696-9.023 1.64-2.653 3.192-5.556 3.444-8.81.126-1.628.724-2.847 1.82-3.704h-.132l.7-.387s.23-.126.621-.306l.08-.036c.077-.036.154-.071.235-.103 1.706-.732 5.095-1.817 8.563-.838.9.254 2.38.696 2.748.958.738.324 1.42.724 2.027 1.189 1.073.822 2.275 1.375 4.022 1.846 4.28 1.156 6.974 3.355 8.238 6.722.661 1.763 1.271 3.575 1.861 5.327.436 1.291.886 2.627 1.352 3.931.214.595.797 1.465 1.301 1.94 2.654 2.503 4.635 5.066 6.057 7.833.124.24.217.493.307.737.042.113.083.226.128.338l.061.153-.437.3-3.444-2.602c.603 1.128 1.2 2.265 1.798 3.402 1.143 2.176 2.326 4.426 3.546 6.606l.148.265c.338.606.676 1.21 1.027 1.809 3.02 5.14 6.957 8.313 12.034 9.698.167.046.334.094.5.143l.278.08c.482.139.963.28 1.446.421.558.164 1.116.328 1.676.487.318.09.64.163.956.235l.268.061c.437-1.059.83-2.134 1.211-3.176a74.243 74.243 0 0 1 1.22-3.19l.037-.058c.072-.08.178-.084.302-.083.335.006.543.055.618.145l.066.082c.277.345.563.7.747 1.11.49 1.088.973 2.182 1.455 3.275.63 1.43 1.283 2.907 1.944 4.35.14.306.524.683.822.805.427.177.86.339 1.295.497l.685.247c.771.276 1.568.56 2.334.89 1.56.673 1.872 1.112 1.792 2.767 1.34-.076 2.54.323 3.767 1.237l.087.008.024.077c.497.382 1.007.849 1.6 1.464l.076.08-.078.362-.883.336c-.648.247-1.297.493-1.94.75-.236.093-.366.188-.41.297-.039.098-.017.24.065.42.234.514.371 1.068.503 1.603l.05.2c.302 1.202.594 2.406.886 3.61l.457 1.875-.466.172-1.098-.95.508 6.114-.48.07-1.143-1.32-.044.133.115 4.091-3.84-2.699-.086.637c-.095.71-.184 1.38-.25 2.052-.053.542-.114 1.157-.542 1.467-.237.172-.55.23-.96.17l-.795 5.99-.998-1.753-.215 1.624-2.204-.952c-.283.99-.533 1.889-.605 2.318l-.082.488-.29-.402c-.299-.418-.49-.85-.609-1.29-.118.68-.273 1.37-.425 2.048-.293 1.311-.596 2.667-.61 3.857l-.063 5.397-.956-.07c.53 2.133.996 4.133 1.383 5.95.89 4.178 1.315 7.127 1.264 8.766l-.074 2.34-1.99-2.197c-.09 1.006-.25 3.44.127 5.065.488 2.122 3.108 12.91 3.134 13.02l.01.04-.007.042a.593.593 0 0 1-.28.4c-.438.242-1.13-.14-2.118-1.177-1.588-1.668-4.27-5.418-5.112-6.61-.586 1.64-2.581 7.496-2.701 11.377-.137 4.373.267 5.247.283 5.282l.576 1.09-.041.091a1.417 1.417 0 0 1-.622.632c-.284.161-.619.198-.988.098-.787-.211-4.242-3.474-5.946-5.116l-1.223 4.492c-.064.259-.143.553-.233.859l-.192.71-.028-.016c-.167.49-.332.898-.502 1.239-.736 1.47-3.828 4.57-3.96 4.702l-2.747 2.326.025-.477c.003-.036.182-3.67-.77-6.402l-.255-.522c-.691 1.45-1.563 3.706-1.169 4.521.06.12.066.227.021.317a.275.275 0 0 1-.146.133c-.279.194-.926-.106-3.115-1.218-1.35-.684-3.354-1.715-3.899-1.666.01.03.028.1.093.221 1.214 2.287 2.448 5.043 2.461 5.07l.153.343-.087-.013-.338-.016a57.96 57.96 0 0 1-4.242-.826c-.539.344-1.403.852-2.566 1.397a29.59 29.59 0 0 1-4.646 1.717c-.18.05-.428.12-.725.2-.642 4.57-3.37 8.42-7.14 10.072a10 10 0 0 1-4.073.874h-.014Z"/></g></svg>