<svg width="200" height="200" fill="none" xmlns="http://www.w3.org/2000/svg"><g clip-path="url(#a)"><path d="M60.796 86.994h3.182v26.043h-3.182V86.994Zm6.36 14.616h9.135v-3.182h-9.134v3.182Zm12.314 11.431h3.182V86.994H79.47v26.047Zm73.862 0h3.182V86.998h-3.182v26.043Zm10.616-26.047h-4.251v3.092h4.251a5.796 5.796 0 0 1 5.789 5.788 5.799 5.799 0 0 1-5.789 5.793h-4.251v3.092h4.251c4.895 0 8.884-3.982 8.884-8.88 0-4.9-3.989-8.885-8.884-8.885Zm-61.974 0c7.183 0 13.021 5.838 13.021 13.021 0 7.184-5.842 13.022-13.021 13.022-7.18 0-13.022-5.842-13.022-13.022 0-7.179 5.843-13.02 13.022-13.02Zm0 22.97c5.486 0 9.953-4.463 9.953-9.952 0-5.49-4.467-9.95-9.953-9.95s-9.949 4.46-9.949 9.95c0 5.489 4.46 9.952 9.949 9.952Zm31.627-22.97c7.179 0 13.021 5.838 13.021 13.021 0 7.184-5.845 13.022-13.021 13.022-7.176 0-13.018-5.842-13.018-13.022 0-7.179 5.839-13.02 13.018-13.02Zm0 22.97c5.486 0 9.949-4.463 9.949-9.952 0-5.49-4.463-9.95-9.949-9.95s-9.949 4.46-9.949 9.95c0 5.489 4.459 9.952 9.949 9.952Zm-88.286-1.996-3.383-11.135h-3.088l4.93 16.204h3.087l7.926-26.043h-3.088l-6.384 20.974ZM23.088 86.994H20l4.929 16.204h3.088l-4.93-16.204Zm12.76 0-7.922 26.047h3.087l7.926-26.047h-3.091ZM180 88.881a1.92 1.92 0 1 0-3.842 0 1.92 1.92 0 0 0 3.842 0Zm-.386 0c0 .875-.675 1.564-1.535 1.564-.86 0-1.538-.69-1.538-1.564 0-.875.678-1.565 1.538-1.565s1.535.69 1.535 1.565Zm-.701 1.034-.463-.875a.577.577 0 0 0 .41-.56c0-.346-.277-.637-.667-.637h-.781v2.076h.383v-.822h.265l.425.822h.428v-.004Zm-.432-1.436c0 .174-.137.315-.341.315h-.349v-.626h.349c.201 0 .341.137.341.315v-.004Z" fill="#fff"/></g><defs><clipPath id="a"><path fill="#fff" d="M20 86.96h160v26.081H20z"/></clipPath></defs></svg>