<svg width="200" height="200" xmlns="http://www.w3.org/2000/svg"><title>Logo_ Zujugp</title><path d="M28.416 104.457c.261-.378.505-.481.968-.323 2.552.875 5.116 1.716 7.68 2.556.427.14.615.366.638.829.068 1.322.187 2.642.286 3.962.084 1.16.182 2.32.248 3.48.037.66.019.68-.635.873-2.402.706-4.811 1.385-7.208 2.108-.458.139-.717.027-.996-.32a660.207 660.207 0 0 0-5.088-6.262c-.304-.37-.29-.641-.023-1.018a508.695 508.695 0 0 0 4.13-5.885Zm81.856-12.507 1.138.009c.728.008.762.032.765.78.013 2.55.007 5.099.007 7.648v1.259c0 2.517.004 5.034-.002 7.552-.002.806-.035 1.608-.206 2.405-.453 2.116-1.731 3.417-3.847 3.898-1.475.336-2.963.337-4.46.128-.406-.056-.562-.232-.558-.622.01-.904.01-1.807.002-2.71-.004-.4.153-.595.579-.575.422.02.847.025 1.267-.008.963-.076 1.504-.533 1.666-1.47.093-.536.102-1.092.103-1.639.007-5.131.004-10.263.004-15.394 0-1.46-.003-1.243 1.266-1.254 1.138-.01 2.276-.012 3.414.002Zm-69.523 21.214c.629 0 1.139.506 1.139 1.13 0 .625-.51 1.13-1.14 1.13a1.135 1.135 0 0 1-1.138-1.13c0-.624.51-1.13 1.139-1.13Zm0 .175a.96.96 0 0 0-.962.956.96.96 0 0 0 .962.955.96.96 0 0 0 .962-.955.96.96 0 0 0-.962-.956Zm.038.267c.138 0 .238.011.3.034a.295.295 0 0 1 .15.123.367.367 0 0 1 .057.202.34.34 0 0 1-.086.237.41.41 0 0 1-.255.119.596.596 0 0 1 .14.107c.036.039.085.108.148.208l.157.25h-.311l-.189-.279a1.822 1.822 0 0 0-.137-.188.2.2 0 0 0-.078-.053.422.422 0 0 0-.131-.015h-.053v.535h-.26v-1.28Zm-.013.216h-.275v.325h.193a.992.992 0 0 0 .234-.016.141.141 0 0 0 .073-.054.166.166 0 0 0 .026-.096.153.153 0 0 0-.035-.104.16.16 0 0 0-.098-.05 2.302 2.302 0 0 0-.19-.005Zm96.763-22.406c1.728-5.081 6.035-7.477 11.233-7.116.682.048 1.362.128 2.024.309 3.235.884 5.26 2.958 6.117 6.163.191.716.174.733-.575.866-.608.107-1.224.17-1.834.27-.436.074-.69-.073-.75-.52-.008-.063-.03-.125-.048-.187-.933-3.049-3.37-4.427-6.525-4.219-2.904.192-4.905 1.722-6.119 4.306-.871 1.855-1.125 3.837-1.1 5.856.024 1.855.303 3.672 1.115 5.369 1.023 2.138 2.627 3.596 5.015 4.065 1.391.273 2.788.236 4.152-.183 1.61-.494 2.773-1.517 3.52-3.01.576-1.15.822-2.378.858-3.651.017-.598-.043-.666-.664-.678-.976-.02-1.953-.007-2.93-.008-.911 0-1.823.012-2.734-.006-.717-.015-.775-.064-.77-.791v-.353c-.011-1.808-.167-1.53 1.805-1.545 2.246-.019 4.492-.005 6.738-.004.26 0 .522.013.782.004.436-.014.678.16.66.62-.006.162.006.323.006.485 0 3.456.003 6.913 0 10.37-.002 1.082-.01 1.082-1.07 1.092-.13 0-.26.002-.39-.001-.85-.022-.852-.022-.957-.85-.069-.545-.12-1.092-.194-1.636a2.233 2.233 0 0 1-.012-.116l-.018-.237c-.019-.196-.058-.387-.211-.547-.202.03-.257.196-.338.329-1.126 1.854-2.801 2.952-4.905 3.376-4.218.85-8.25-.617-10.608-4.262a11.059 11.059 0 0 1-1.237-2.52c-1.218-3.673-1.282-7.372-.036-11.04Zm-7.199.533 1.66.009c.795.007.813.018.815.821.009 2.714.004 5.428.004 8.142 0 2.36.005 4.718-.002 7.076-.003.899-.017.91-.94.92-1.14.01-2.279.013-3.418-.002-.832-.01-.844-.04-.864-.9a128.24 128.24 0 0 0-.047-1.545c0-.02-.04-.04-.139-.129-.175.258-.317.473-.466.682a5.208 5.208 0 0 1-2.706 1.974c-1.476.474-2.96.428-4.413-.067-1.418-.482-2.321-1.495-2.826-2.882-.372-1.02-.468-2.081-.473-3.148-.015-3.328-.006-6.656-.006-9.984 0-.162.008-.323.014-.484.012-.303.144-.475.476-.474 1.465.004 2.93.005 4.395-.001.359-.001.55.146.555.508.004.291.013.582.013.872 0 2.714-.006 5.429.006 8.143.002.547.027 1.101.118 1.64.168.994.665 1.757 1.727 1.995 1.133.255 2.215-.154 2.842-1.056.52-.749.667-1.605.67-2.49.006-2.746-.001-5.492.004-8.239v-.298c-.003-1.145 0-1.082 1.064-1.076h.277c1.106-.01 2.214-.01 3.32.002Zm-29.02.002c.458-.008.666.166.633.623-.01.16.002.323.002.484v14.732c0 1.12-.006 1.124-1.12 1.129-1.14.004-2.28.013-3.419-.01-.615-.011-.668-.076-.687-.675-.019-.605-.004-1.21-.004-1.816l-.192-.025c-.044.047-.1.087-.131.142-1.382 2.436-4.229 3.267-7.066 2.511-1.525-.406-2.554-1.368-3.132-2.812a6.402 6.402 0 0 1-.453-1.878c-.04-.515-.093-1.031-.095-1.547-.01-3.328-.013-6.655-.006-9.983.002-.855.021-.864.87-.87 1.237-.007 2.474-.008 3.71.001.836.007.856.025.865.887.013 1.228.005 2.456.005 3.683 0 1.648-.01 3.296.006 4.943.005.548.03 1.102.122 1.64.168.993.66 1.76 1.72 2.003 1.13.26 2.22-.147 2.846-1.046.54-.777.68-1.665.68-2.584.004-2.681-.004-5.362.005-8.044.001-.222 0-.41-.002-.572v-.22c.009-.604.09-.688.642-.694h.202c.183.003.407.007.679.004 1.106-.013 2.214.012 3.32-.006Zm-20 .004c.227 0 .455.006.683.011.282.007.406.166.407.432.003.807.01 1.615 0 2.422-.004.39-.306.63-.523.905l-6.51 8.233c-.214.272-.473.52-.617.923.45.188.812.123 1.165.124 1.92.007 3.841.003 5.762.004.26 0 .52.007.78.016.318.011.474.19.475.495a343 343 0 0 1 0 2.906c-.002.315-.18.468-.49.479-.228.007-.456.014-.683.014H69.17c-.228 0-.456-.008-.683-.01-.35-.004-.546-.154-.544-.524.004-.775.01-1.55-.005-2.326-.007-.439.288-.705.53-1.001 2.214-2.71 4.431-5.417 6.646-8.125.244-.3.481-.604.71-.892-.188-.36-.482-.235-.715-.237-1.92-.01-3.841-.003-5.762-.008-.998-.002-1.001-.009-1.007-1.032-.005-.743.01-1.486.001-2.229-.004-.398.152-.607.575-.58.162.011.325 0 .488 0Zm87.813-7.141 2.472.007c1.24.007 2.465.147 3.65.541 3.032 1.01 4.746 3.387 4.747 6.59.001 3.202-1.708 5.58-4.742 6.59-1.12.374-2.276.533-3.454.54-1.43.009-2.862 0-4.293.004-1.083.003-1.09.007-1.092 1.046-.004 2.485-.001 4.97-.002 7.455 0 .259-.01.517-.004.775.008.36-.166.543-.524.544-.748.002-1.496.003-2.244-.006-.313-.004-.469-.183-.472-.492-.003-.258-.008-.516-.008-.774V86.138c0-.259.006-.517.005-.775 0-.353.165-.54.53-.54.162 0 .324-.007.487-.007 2.472 0 4.944-.008 7.416.005ZM49.969 87.937c.362-.172.61-.046.843.238.39.476.798.937 1.196 1.406 1.28 1.504 2.546 3.02 3.85 4.505.374.427.42.788.194 1.304-.88 2.013-1.712 4.046-2.57 6.068-.305.719-.32.727-1.09.503-2.12-.616-4.233-1.257-6.358-1.859-.494-.14-.771-.368-.866-.89-.457-2.507-.942-5.01-1.415-7.515-.024-.127-.037-.255-.06-.415-.041-.223.046-.398.29-.513 1.998-.94 3.993-1.884 5.986-2.832Zm122.828-.268c-1.937-.314-3.894-.107-5.841-.144-.442-.008-.537.262-.536.631.005 1.259.002 2.517.002 3.775-.003 1.226-.014 2.452.001 3.678.01.731.042.764.783.77 1.495.013 2.991.021 4.486-.006a6.064 6.064 0 0 0 2.458-.544c1.152-.533 1.941-1.383 2.288-2.612.756-2.675-.812-5.088-3.64-5.548ZM30.122 82.111c.768-.196.782-.188 1.142.489a594.014 594.014 0 0 1 2.393 4.547c.319.612.32.63-.166 1.051-1.937 1.675-3.881 3.342-5.823 5.01-.224.193-.45.385-.783.306-.126-.032-.253-.06-.377-.097-1.954-.604-3.91-1.204-5.862-1.816-.728-.228-.74-.247-.524-.931.62-1.97 1.266-3.934 1.875-5.908.141-.457.39-.676.857-.792 2.427-.602 4.845-1.242 7.268-1.86Zm81.543 2.461c.432-.01.667.119.66.598a156.687 156.687 0 0 0 0 3.672c.004.443-.177.652-.63.65-1.46-.006-2.92-.004-4.381 0-.425 0-.666-.146-.66-.62.016-1.256.01-2.512.006-3.768-.001-.359.16-.529.526-.526.78.007 1.558.002 2.337.002.714-.003 1.429.008 2.142-.008Z" fill="#FFF" fill-rule="evenodd"/></svg>