<svg width="200" height="200" viewBox="0 0 200 200" fill="none" xmlns="http://www.w3.org/2000/svg">
<path d="M29.2606 82.5015H68.4148V92.3178H33.4574C32.8217 92.3178 32.306 92.9358 32.306 93.7049C32.306 94.4741 32.8217 95.092 33.4574 95.092H59.1497C64.2624 95.092 68.4103 100.107 68.4103 106.295C68.4103 112.484 64.2624 117.499 59.1497 117.499H20V107.683H54.9529C55.5887 107.683 56.1088 107.06 56.1088 106.295C56.1088 105.531 55.5931 104.908 54.9529 104.908H29.2606C24.1435 104.913 20 99.8935 20 93.7049C20 87.5164 24.1435 82.5015 29.2606 82.5015ZM107.311 82.4971V104.428L83.904 82.4971H71.1845V117.503H83.4727V95.5677L106.875 117.503H119.595V82.4971H107.311ZM170.779 82.4971H154.681L134.662 97.9373V82.4971H122.373V117.503H134.662V102.067L154.681 117.503H170.779L148.075 100.005L170.779 82.4971ZM180 87.094C180 88.3789 179.551 89.4681 178.648 90.3706C177.755 91.2642 176.666 91.7221 175.39 91.7221C174.114 91.7221 173.025 91.2642 172.126 90.3706C171.237 89.4636 170.788 88.3789 170.788 87.094C170.788 85.8092 171.237 84.7511 172.14 83.8441C173.038 82.955 174.118 82.4971 175.39 82.4971C176.661 82.4971 177.755 82.9505 178.648 83.8441C179.551 84.7378 180 85.827 180 87.094ZM179.355 87.094C179.355 86.0004 178.96 85.0667 178.191 84.2976C177.421 83.5063 176.479 83.1195 175.39 83.1195C174.3 83.1195 173.367 83.5063 172.589 84.2976C171.82 85.0667 171.433 86.0004 171.433 87.094C171.433 88.1877 171.82 89.1435 172.584 89.9171C173.367 90.6996 174.292 91.0953 175.39 91.0953C176.488 91.0953 177.43 90.6996 178.191 89.9171C178.96 89.1435 179.355 88.201 179.355 87.094ZM176.968 87.5253C177.186 87.7476 177.341 88.0276 177.39 88.3522L177.546 89.5037H176.741L176.586 88.3522C176.532 88.0499 176.248 87.7965 175.923 87.7965H174.296V89.5081H173.496V84.8533H176.159C176.95 84.8533 177.55 85.4713 177.55 86.2049V86.4405C177.55 86.8895 177.319 87.2808 176.968 87.5297V87.5253ZM174.292 87.0362H176.123C176.466 87.0362 176.741 86.7695 176.741 86.4405V86.2049C176.741 85.8937 176.483 85.6225 176.154 85.6225H174.292V87.0407V87.0362Z" fill="white"/>
</svg>
