<svg width="200" height="200" fill="none" xmlns="http://www.w3.org/2000/svg"><path fill-rule="evenodd" clip-rule="evenodd" d="M177.643 84.23a.593.593 0 0 1-.437.179h-.876v-1.217h.876a.604.604 0 0 1 .616.603c0 .17-.06.316-.179.435Zm.512.25c.143-.197.214-.426.214-.685a1.142 1.142 0 0 0-.338-.823 1.197 1.197 0 0 0-.373-.251 1.135 1.135 0 0 0-.452-.092h-1.423v3.325h.547v-.983h.667l.616.983h.647l-.657-1.054c.226-.082.41-.222.552-.42Zm-.228 2.067c-.302.13-.625.194-.97.194s-.668-.065-.97-.194a2.547 2.547 0 0 1-.79-.527 2.45 2.45 0 0 1-.532-.777 2.373 2.373 0 0 1-.194-.957 2.439 2.439 0 0 1 .726-1.734c.225-.221.489-.397.79-.526.302-.13.625-.195.97-.195s.668.065.97.194c.301.13.565.306.79.527a2.423 2.423 0 0 1 .726 1.734c0 .341-.065.66-.194.957a2.434 2.434 0 0 1-.532.777 2.547 2.547 0 0 1-.79.527Zm.213-5.058a2.955 2.955 0 0 0-1.183-.241c-.418 0-.811.08-1.178.24-.368.16-.69.377-.965.65a3.02 3.02 0 0 0-.89 2.148c0 .423.08.818.239 1.186.159.369.376.69.651.962.275.273.597.49.965.65.367.16.76.24 1.178.24.418 0 .812-.08 1.183-.24a3.031 3.031 0 0 0 1.621-1.611 2.96 2.96 0 0 0 .239-1.187 3.02 3.02 0 0 0-1.86-2.797Zm-15.58 19.187v3.676h8.91c.889 0 1.724-.15 2.502-.451.779-.301 1.585-.718 2.153-1.253a5.792 5.792 0 0 0 1.335-1.905 5.854 5.854 0 0 0 .483-2.373c0-1.115-.239-2.045-.717-2.791-.479-.747-1.218-1.36-1.952-1.838a10.33 10.33 0 0 0-2.419-1.154c-.88-.289-1.708-.545-2.486-.769a57.3 57.3 0 0 1-2.303-.718c-.623-.212-1.124-.44-1.501-.685-.379-.245-.651-.507-.818-.786-.167-.278-.25-.618-.25-1.019 0-.401.077-.746.233-1.036.156-.29.362-.53.618-.719.255-.189.539-.328.851-.417.311-.09.634-.134.967-.134h3.689v-3.677h-3.689c-.912 0-1.752.15-2.519.451-.768.301-1.435.72-2.002 1.254a5.835 5.835 0 0 0-1.819 4.278c0 1.159.245 2.122.734 2.891a6.238 6.238 0 0 0 1.852 1.888c.745.49 1.563.886 2.453 1.187.889.3 1.735.563 2.536.786.889.245 1.635.473 2.236.685.6.212 1.084.429 1.451.651.367.223.634.468.801.736.167.267.25.58.25.936 0 .4-.078.746-.233 1.036a2.14 2.14 0 0 1-.618.718c-.256.19-.545.329-.867.418-.323.089-.64.134-.951.134h-8.91Zm-41.546 3.676c5.32 0 9.492-3.782 9.492-8.456V82.797h-3.85v13.1c0 1.352-.595 2.644-1.68 3.597-1.12.953-2.421 1.476-3.962 1.476-1.575 0-2.876-.523-3.961-1.476-1.12-.953-1.715-2.245-1.715-3.598V82.797h-3.85v13.1c0 4.673 4.207 8.455 9.526 8.455Zm-48.157-13.1-2.94 5.935 7.21 2.676-4.27-8.61Zm-10.71 13.1 10.71-21.524 10.71 21.524h-4.2l-11.025-4.059-1.995 4.059h-4.2ZM35.69 86.211H20v-3.383h15.689v3.383Zm-5.369 9.07H20V91.9h10.32v3.382ZM20 104.352h15.69v-3.382H20v3.382Zm86.658 0h-4.339l-4.795-8.056-5.46 8.056h-3.85V82.828h3.85v14.913l10.114-14.913h4.48l-6.824 10.055 6.824 11.469Zm28.761-21.524h3.85v18.142h9.17v3.382h-13.02V82.828Zm21.61 21.524h-3.849V82.828h3.849v21.524ZM59.224 92.299c0-5.227-4.83-9.47-10.78-9.47h-8.12v21.523h3.857V86.211h4.264c1.855 0 3.605.645 4.9 1.783 1.33 1.138 2.03 2.675 2.03 4.305s-.7 3.167-2.03 4.305a6.83 6.83 0 0 1-1.194.837l-1.127-1.564h-4.55l1.396 1.927h-.005l2.94 4.059.008-.003 1.796 2.492h4.55l-2.94-4.058c3.01-1.692 5.005-4.644 5.005-7.995Zm1.433 25.44a.712.712 0 0 1-.487.178h-2.088v-1.213h2.088c.19 0 .352.06.487.178a.553.553 0 0 1 0 .857Zm-.19-2.046a.712.712 0 0 1-.487.178h-1.898v-1.213h1.898c.19 0 .352.06.487.178a.552.552 0 0 1 0 .857Zm-3.334-1.869v4.927h3.037a1.792 1.792 0 0 0 1.16-.421c.147-.129.263-.281.35-.458.086-.177.129-.364.129-.561 0-.222-.053-.43-.16-.621a1.46 1.46 0 0 0-.435-.486c.126-.126.225-.269.297-.428a1.263 1.263 0 0 0-.021-1.072 1.454 1.454 0 0 0-.35-.459 1.792 1.792 0 0 0-1.16-.421h-2.847Zm13.216.834v1.38h2.64v.833h-2.64v1.046h3.114v.834H69.4v-4.926h4.063v.833H70.35Zm6.09 2.267h2.053l-1.026-2.077-1.027 2.077Zm1.553-3.1 2.433 4.926H79.39l-.492-.993h-2.873l-.491.993h-1.036l2.433-4.926h1.061Zm15.709.833h1.803v-.833h-4.555v.833h1.803v4.093h.949v-4.093Zm10.653 0v1.38h2.64v.833h-2.64v1.046h3.114v.834h-4.063v-4.926h4.063v.833h-3.114Zm-38.49 1.804a1.193 1.193 0 0 0 .759-.265.924.924 0 0 0 .232-.288.749.749 0 0 0 0-.701.932.932 0 0 0-.232-.284 1.186 1.186 0 0 0-.76-.266h-1.51v1.804h1.51Zm1.828 2.289h-1.121l-1.061-1.455h-1.156v1.455H63.405v-4.927h2.458c.282 0 .545.046.79.137.244.091.458.215.642.371.184.157.33.341.436.553a1.493 1.493 0 0 1 .06 1.213 1.661 1.661 0 0 1-.276.47 1.873 1.873 0 0 1-.422.372 2.147 2.147 0 0 1-.54.249l1.139 1.562Zm17.253 0h1.216l-2.363-2.6 2.398-2.327h-1.285l-2.416 2.357v-2.357h-.949v4.927h.949v-1.327l.656-.644 1.794 1.971Zm16.649-4.927v4.927h-.949v-1.88h-2.941v1.88h-.95v-4.927h.95v2.214h2.941v-2.214h.949Zm14.993 4.927v-.834h-2.467v-4.093h-.95v4.927h3.417Zm1.25 0h.949v-4.927h-.949v4.927Zm8.782 0v-4.927h-1.458l-1.553 3.161-1.552-3.161h-1.458v4.927h.949v-3.858l1.63 3.305h.863l1.63-3.305v3.858h.949Zm1.812 0h.949v-4.927h-.949v4.927Zm4.951-4.093h1.804v-.833h-4.555v.833h1.803v4.093h.948v-4.093Z" fill="#fff"/></svg>