<svg width="200" height="200" fill="none" xmlns="http://www.w3.org/2000/svg"><path d="m143.532 72.267-37.985 37.985a7.543 7.543 0 0 1-5.366 2.218 7.541 7.541 0 0 1-5.365-2.218L74.964 90.401l3.333-3.333 19.852 19.851a2.85 2.85 0 0 0 2.032.839c.771 0 1.492-.298 2.033-.839l37.985-37.985 3.333 3.333ZM70.117 88.892a7.598 7.598 0 0 0-10.736 0l-19.852 19.851 3.333 3.333 19.852-19.851a2.878 2.878 0 0 1 4.064 0l19.852 19.851 3.333-3.333L70.11 88.892h.006Zm70.82 0a7.599 7.599 0 0 0-10.737 0l-19.851 19.851 3.333 3.333 19.851-19.851a2.864 2.864 0 0 1 2.033-.839c.765 0 1.492.298 2.032.839l19.851 19.851 3.333-3.333-19.851-19.851h.006ZM28.9 124.778c-.118 0-.18.056-.22.174l-1.773 5.872c-.04.107.011.175.13.175h.528c.119 0 .164-.062.203-.175l.422-1.419h1.931l.428 1.419c.034.107.085.175.203.175h.574c.13 0 .175-.062.135-.175l-1.773-5.872c-.04-.118-.101-.174-.22-.174H28.9Zm1.024 3.912h-1.537l.524-1.683c.09-.281.191-.878.253-1.334.04.377.175 1.114.248 1.351l.512 1.666Zm4.78 2.303c1.565 0 2.083-.659 2.083-1.407v-3.401c0-.749-.523-1.407-2.083-1.407H32.79c-.118 0-.163.056-.163.18v5.855c0 .118.04.18.146.18h1.931Zm0-5.455c.822 0 1.188.304 1.188.793v3.108c0 .496-.366.794-1.188.794h-1.188v-4.701h1.188v.006Zm5.59 5.455c.12 0 .181-.056.22-.174l1.774-5.873c.04-.118-.011-.174-.135-.174h-.558c-.118 0-.163.062-.202.174l-1.143 3.812c-.056.174-.18.788-.231 1.098-.056-.394-.135-.862-.208-1.115l-1.132-3.795c-.034-.107-.084-.174-.203-.174h-.613c-.118 0-.164.056-.13.174l1.774 5.873c.033.118.101.174.22.174h.568Zm4.336-6.215c-.118 0-.18.056-.22.174l-1.773 5.872c-.04.107.011.175.13.175h.529c.118 0 .163-.062.202-.175l.423-1.419h1.93l.429 1.419c.039.107.084.175.202.175h.575c.129 0 .174-.062.135-.175l-1.774-5.872c-.04-.118-.101-.174-.22-.174h-.568Zm1.025 3.912h-1.537l.523-1.683c.09-.281.192-.878.254-1.334.039.377.174 1.114.247 1.351l.513 1.666Zm6.857-3.738c0-.118-.034-.174-.163-.174h-.501c-.119 0-.175.056-.175.174v4.335a7.923 7.923 0 0 0-.281-.585l-2.207-3.851c-.029-.045-.074-.073-.147-.073h-.512c-.118 0-.163.056-.163.174v5.872c0 .118.045.175.163.175h.512c.119 0 .164-.057.164-.175v-4.346c.084.202.22.473.326.67l2.15 3.766c.04.057.074.085.164.085h.501c.13 0 .163-.057.163-.175v-5.872h.006Zm5.664 4.132c0-.118-.045-.174-.163-.174h-.53c-.13 0-.174.056-.174.174v.428c0 .496-.321.794-1.143.794-.822 0-1.132-.304-1.132-.794v-3.254c0-.495.31-.794 1.132-.794.822 0 1.143.304 1.143.794v.304c0 .13.045.18.174.18h.53c.118 0 .163-.056.163-.18v-.45c0-.749-.45-1.408-2.021-1.408s-2.022.659-2.022 1.408v3.547c0 .749.45 1.407 2.022 1.407 1.57 0 2.02-.658 2.02-1.407v-.575Zm4.78 1.909c.118 0 .174-.045.174-.174v-.423c0-.129-.056-.163-.174-.163H60.45v-2.111h2.241c.13 0 .18-.057.18-.175v-.394c0-.129-.056-.174-.18-.174h-2.24v-1.847h2.403c.118 0 .175-.045.175-.175v-.411c0-.129-.057-.174-.175-.174h-3.13c-.118 0-.163.056-.163.18v5.855c0 .13.045.18.163.18h3.232v.006Zm3.631 0c1.565 0 2.083-.659 2.083-1.407v-3.401c0-.749-.523-1.407-2.083-1.407h-1.914c-.118 0-.163.056-.163.18v5.855c0 .118.039.18.146.18h1.931Zm0-5.455c.822 0 1.188.304 1.188.793v3.108c0 .496-.366.794-1.188.794h-1.188v-4.701h1.188v.006Zm6.733 5.275v-2.28h1.245l1.013 2.28c.056.129.107.18.208.18h.603c.13 0 .208-.073.163-.18l-1.098-2.398c.788-.22 1.07-.732 1.07-1.278v-.952c0-.749-.501-1.407-2.078-1.407h-1.858c-.118 0-.163.056-.163.18v5.855c0 .129.045.18.163.18h.558c.13 0 .163-.056.163-.18h.011Zm1.132-5.275c.822 0 1.188.304 1.188.793v.648c0 .501-.366.794-1.188.794H73.32v-2.241h1.132v.006Zm6.987 5.455c.118 0 .174-.045.174-.174v-.423c0-.129-.056-.163-.174-.163h-2.505v-2.111h2.24c.13 0 .18-.057.18-.175v-.394c0-.129-.056-.174-.18-.174h-2.24v-1.847h2.404c.118 0 .174-.045.174-.175v-.411c0-.129-.056-.174-.174-.174h-3.13c-.119 0-.164.056-.164.18v5.855c0 .13.045.18.163.18h3.232v.006Zm5.5-1.909c0-.118-.045-.174-.163-.174h-.53c-.129 0-.174.056-.174.174v.428c0 .496-.32.794-1.142.794-.823 0-1.132-.304-1.132-.794v-3.254c0-.495.31-.794 1.132-.794.821 0 1.142.304 1.142.794v.304c0 .13.045.18.175.18h.53c.117 0 .162-.056.162-.18v-.45c0-.749-.45-1.408-2.02-1.408-1.572 0-2.022.659-2.022 1.408v3.547c0 .749.45 1.407 2.021 1.407s2.021-.658 2.021-1.407v-.575Zm1.29.575c0 .749.512 1.407 2.077 1.407s2.083-.658 2.083-1.407v-3.547c0-.749-.512-1.408-2.083-1.408-1.57 0-2.077.659-2.077 1.408v3.547Zm3.265-.147c0 .496-.366.794-1.188.794s-1.182-.304-1.182-.794v-3.254c0-.495.366-.794 1.182-.794.817 0 1.188.304 1.188.794v3.254Zm4.403 1.481c.118 0 .18-.056.22-.174l1.773-5.873c.04-.118-.011-.174-.135-.174h-.558c-.118 0-.163.062-.202.174l-1.143 3.812c-.057.174-.18.788-.231 1.098-.056-.394-.135-.862-.209-1.115l-1.131-3.795c-.034-.107-.085-.174-.203-.174h-.613c-.119 0-.164.056-.13.174l1.774 5.873c.033.118.1.174.22.174h.568Zm6.559 0c.118 0 .174-.045.174-.174v-.423c0-.129-.056-.163-.174-.163H99.95v-2.111h2.241c.13 0 .18-.057.18-.175v-.394c0-.129-.056-.174-.18-.174h-2.24v-1.847h2.403c.119 0 .175-.045.175-.175v-.411c0-.129-.056-.174-.175-.174h-3.13c-.118 0-.163.056-.163.18v5.855c0 .13.045.18.163.18h3.232v.006Zm2.443-.18v-2.28h1.244l1.014 2.28c.056.129.107.18.208.18h.602c.13 0 .209-.073.164-.18l-1.098-2.398c.788-.22 1.07-.732 1.07-1.278v-.952c0-.749-.502-1.407-2.078-1.407h-1.858c-.118 0-.163.056-.163.18v5.855c0 .129.045.18.163.18h.558c.129 0 .163-.056.163-.18h.011Zm1.132-5.275c.822 0 1.188.304 1.188.793v.648c0 .501-.366.794-1.188.794h-1.132v-2.241h1.132v.006Zm3.822-.586c-.056-.107-.09-.174-.208-.174h-.63c-.13 0-.181.061-.13.174l1.813 3.676v2.196c0 .118.045.175.175.175h.557c.118 0 .163-.057.163-.175v-2.297l1.79-3.575c.062-.118 0-.174-.118-.174h-.557c-.118 0-.158.084-.203.174l-1.216 2.415a3.052 3.052 0 0 0-.146.411 3.208 3.208 0 0 0-.147-.411l-1.143-2.415Zm6.863-.174c-.118 0-.163.056-.163.18v5.855c0 .129.045.18.163.18h.558c.129 0 .163-.056.163-.18v-2.652h2.472c.129 0 .174-.056.174-.174v-.423c0-.129-.045-.174-.174-.174h-2.472v-1.858h2.635c.118 0 .174-.045.174-.175v-.411c0-.129-.056-.174-.174-.174h-3.356v.006Zm4.69 4.881c0 .749.513 1.407 2.078 1.407s2.083-.658 2.083-1.407v-3.547c0-.749-.513-1.408-2.083-1.408-1.571 0-2.078.659-2.078 1.408v3.547Zm3.266-.147c0 .496-.366.794-1.188.794s-1.183-.304-1.183-.794v-3.254c0-.495.366-.794 1.183-.794.816 0 1.188.304 1.188.794v3.254Zm3.4 1.301v-2.28h1.244l1.014 2.28c.056.129.107.18.208.18h.602c.13 0 .209-.073.164-.18l-1.098-2.398c.788-.22 1.07-.732 1.07-1.278v-.952c0-.749-.501-1.407-2.078-1.407h-1.858c-.118 0-.163.056-.163.18v5.855c0 .129.045.18.163.18h.558c.129 0 .163-.056.163-.18h.011Zm1.137-5.275c.822 0 1.188.304 1.188.793v.648c0 .501-.366.794-1.188.794h-1.131v-2.241h1.131v.006Zm7.077-.76c-.118 0-.18.056-.219.174l-1.774 5.872c-.033.107.012.175.13.175h.529c.118 0 .163-.062.203-.175l.422-1.419h1.931l.428 1.419c.039.107.084.175.203.175h.574c.129 0 .174-.062.135-.175l-1.773-5.872c-.04-.118-.102-.174-.22-.174h-.569Zm1.025 3.912h-1.537l.524-1.683c.09-.281.191-.878.253-1.334.039.377.174 1.114.248 1.351l.512 1.666Zm1.813-3.912c-.13 0-.175.045-.175.174v.411c0 .13.045.175.175.175h1.464v5.275c0 .129.045.18.163.18h.569c.118 0 .163-.056.163-.18v-5.275h1.464c.118 0 .174-.045.174-.175v-.411c0-.129-.056-.174-.174-.174h-3.823Zm6.013.18c0-.13-.04-.18-.164-.18h-.557c-.118 0-.163.056-.163.18v5.855c0 .129.045.18.163.18h.557c.13 0 .164-.056.164-.18v-2.691h2.376v2.691c0 .129.045.18.163.18h.568c.119 0 .164-.056.164-.18v-5.855c0-.13-.045-.18-.164-.18h-.568c-.118 0-.163.056-.163.18v2.404h-2.376v-2.404Zm5.894 0c0-.13-.045-.18-.163-.18h-.557c-.13 0-.175.056-.175.18v5.855c0 .118.045.18.146.18h3.091c.119 0 .175-.045.175-.174v-.423c0-.129-.056-.163-.175-.163h-2.342v-5.275Zm7.021 6.035c.118 0 .174-.045.174-.174v-.423c0-.129-.056-.163-.174-.163h-2.505v-2.111h2.24c.13 0 .18-.057.18-.175v-.394c0-.129-.056-.174-.18-.174h-2.24v-1.847h2.404c.118 0 .174-.045.174-.175v-.411c0-.129-.056-.174-.174-.174h-3.131c-.118 0-.163.056-.163.18v5.855c0 .13.045.18.163.18h3.232v.006Zm1.143-6.215c-.13 0-.175.045-.175.174v.411c0 .13.045.175.175.175h1.464v5.275c0 .129.045.18.163.18h.568c.119 0 .164-.056.164-.18v-5.275h1.464c.118 0 .174-.045.174-.175v-.411c0-.129-.056-.174-.174-.174h-3.823Zm8.524 6.215c.118 0 .174-.045.174-.174v-.423c0-.129-.056-.163-.174-.163h-2.506v-2.111h2.241c.129 0 .18-.057.18-.175v-.394c0-.129-.056-.174-.18-.174h-2.241v-1.847h2.404c.118 0 .175-.045.175-.175v-.411c0-.129-.057-.174-.175-.174h-3.13c-.118 0-.163.056-.163.18v5.855c0 .13.045.18.163.18h3.232v.006Zm4.464-4.481c0 .118.034.174.163.174h.541c.118 0 .163-.056.163-.174v-.4c0-.749-.495-1.408-1.987-1.408s-1.965.659-1.965 1.408v.523c0 .569.411.98.816 1.132l1.549.597c.354.135.765.293.765.749v.428c0 .495-.354.776-1.182.776s-1.171-.281-1.171-.776v-.411c0-.13-.045-.181-.163-.181h-.541c-.118 0-.174.057-.174.181v.529c0 .749.529 1.407 2.06 1.407 1.532 0 2.049-.658 2.049-1.407v-.76c0-.676-.456-1.036-1.007-1.245l-1.667-.63c-.191-.073-.467-.192-.467-.614v-.18c0-.495.304-.777 1.109-.777.805 0 1.109.282 1.109.777v.282Z" fill="#fff"/></svg>