<svg width="200" height="200" xmlns="http://www.w3.org/2000/svg"><title>Logo_Jacob&amp;Co</title><path d="m102.338 88.058-2.332-3.763-2.318 3.763h-2.319l3.484-5.625-3.484-5.613h2.319l2.318 3.75 2.332-3.75h2.293l-3.46 5.613 3.46 5.625h-2.293Zm28.015 13.643h-20.552v7.123h13.591c-8.59 13.134-10.065 28.746-9.727 42.238h7.369c-.152-19.303.716-29.277 9.32-42.45v-6.91Zm-28.046 15.761c-.023.716-.045 1.319-.065 1.81a7.15 7.15 0 0 1-.136 1.212c-.065.302-.17.589-.309.852-.59 1.279-1.895 1.932-3.88 1.932H96.9V107.96h1.019c.84 0 1.564.103 2.149.304.6.208 1.07.566 1.396 1.063.318.488.546 1.18.679 2.057.132.869.198 1.981.198 3.308 0 1.111-.01 2.043-.033 2.77Zm4.253 7.41c.394-.784.708-1.621.95-2.508.238-.885.402-1.88.49-2.987.088-1.107.13-2.42.13-3.947 0-2.31-.185-4.278-.556-5.902-.37-1.623-.928-3.026-1.67-4.207a8.13 8.13 0 0 0-1.44-1.731 5.928 5.928 0 0 0-1.833-1.107c-.698-.27-1.517-.467-2.455-.59a25.19 25.19 0 0 0-3.24-.186h-5.958v49.21h6.089v-20.88c.48-.048.828-.086 1.046-.11.22-.024.59-.086 1.114-.186l3.535 21.175h6.548l-4.256-23.534c.61-.885 1.113-1.72 1.506-2.51Zm-28.068-23.985c-5.718 0-8.845 3.936-8.845 11.802v27.07c0 7.867 3.127 11.8 8.845 11.8 5.89 0 8.836-4.35 8.836-13.054 0-.689-.01-1.388-.032-2.103l-.099-3.06H81.11c.043 1.13.074 2.078.097 2.84.022.763.033 1.512.033 2.249 0 2.608-.186 4.378-.555 5.31-.373.935-1.104 1.403-2.193 1.403-1.005 0-1.67-.356-1.998-1.07-.326-.712-.49-2.151-.49-4.315v-27.07c0-2.162.164-3.602.49-4.314.328-.714.993-1.07 1.998-1.07 1.089 0 1.82.48 2.193 1.437.369.96.555 2.793.555 5.495v1.55c0 .442-.044 1.058-.13 1.844h6.087c.086-.982.13-1.733.13-2.25v-1.66c0-8.555-2.944-12.834-8.835-12.834Zm11.266 60.78.446-4.859.447 4.86h-.893Zm1.326-6.762h-1.676l-1.27 10.49h1.256l.224-2.359h1.173l.237 2.359H92.3l-1.215-10.49Zm8.103 8.43c0 .305-.044.522-.132.653-.09.13-.227.195-.413.195-.195 0-.335-.064-.419-.195-.083-.131-.125-.348-.125-.653v-6.37c0-.303.044-.52.133-.652.088-.131.225-.196.411-.196.196 0 .336.065.42.196.083.131.125.349.125.653v6.37Zm1.285-6.543a6.926 6.926 0 0 0-.042-.51 1.731 1.731 0 0 0-.084-.362 1.716 1.716 0 0 0-.803-.943 1.838 1.838 0 0 0-.9-.229c-.327 0-.627.077-.9.228a1.704 1.704 0 0 0-.65.622 2.257 2.257 0 0 0-.154.322c-.037.1-.068.22-.09.361a3.661 3.661 0 0 0-.043.511c-.005.2-.007.457-.007.77v5.16c0 .314.002.571.007.77.005.2.019.37.042.51.023.143.054.264.09.364.037.099.09.207.155.322.158.272.374.484.65.637.273.151.573.228.9.228.325 0 .625-.077.9-.228.275-.153.491-.365.65-.637a2.23 2.23 0 0 0 .153-.322c.037-.1.065-.221.084-.363a6.83 6.83 0 0 0 .042-.51c.01-.2.014-.457.014-.771v-5.16c0-.313-.005-.57-.014-.77Zm-18.288 3.618-.655-1.07c-.215-.367-.385-.66-.51-.88a5.134 5.134 0 0 1-.28-.55 1.495 1.495 0 0 1-.111-.402 3.554 3.554 0 0 1-.021-.417c0-.65.181-.974.545-.974.315 0 .498.22.544.66.019.115.03.234.035.354.005.12.007.317.007.59l1.27-.142v-.519c0-.126-.001-.23-.006-.314a3.363 3.363 0 0 0-.063-.472c-.093-.482-.289-.858-.586-1.125-.299-.268-.67-.401-1.118-.401-.586 0-1.052.205-1.396.614-.345.409-.517.959-.517 1.65 0 .232.019.454.056.67.037.215.097.44.182.675.083.237.193.488.328.756.134.267.3.569.495.904l.643 1.07c.158.24.288.45.39.628.103.178.185.346.245.503.06.157.103.31.126.457.023.146.035.304.035.471 0 .693-.195 1.037-.587 1.037-.251 0-.426-.1-.524-.305-.097-.204-.146-.58-.146-1.125v-.455l-1.285.062c-.01.126-.014.223-.014.292v.275c0 .461.028.82.084 1.076.056.257.162.507.321.748.354.534.87.802 1.55.802.614 0 1.084-.188 1.41-.566.326-.377.489-.918.489-1.62 0-.451-.081-.931-.244-1.44a7.456 7.456 0 0 0-.692-1.517Zm13.047.676-1.717-6.18h-1.117v10.489h1.299v-5.504l1.535 5.504h1.3v-10.49h-1.3v6.181Zm-12.092-4.812h1.214v9.12h1.299v-9.12h1.09v9.12h1.298v-10.489H83.14v1.369Zm-7.095 1.99-.014.384c-.006.104-.015.189-.028.252a.697.697 0 0 1-.063.174c-.121.261-.387.392-.796.392h-.181v-3.192h.18c.178 0 .327.02.447.062a.535.535 0 0 1 .28.213c.065.1.112.24.14.424.028.184.042.417.042.7 0 .243-.003.439-.007.591Zm.62 2.114c.13-.188.238-.367.322-.534a2.89 2.89 0 0 0 .203-.534c.051-.19.086-.401.105-.638.018-.236.027-.516.027-.841 0-.493-.04-.913-.118-1.259a2.87 2.87 0 0 0-.357-.896 1.733 1.733 0 0 0-.306-.37 1.277 1.277 0 0 0-.392-.236 2.271 2.271 0 0 0-.524-.125c-.2-.026-.43-.04-.69-.04h-1.272v10.49h1.3v-4.45c.102-.01.176-.019.222-.024a3.95 3.95 0 0 0 .238-.04l.754 4.514h1.396l-.907-5.017Zm-5.188-5.63c-1.22 0-1.83.84-1.83 2.516v5.772c0 1.678.61 2.517 1.83 2.517 1.257 0 1.885-.929 1.885-2.784 0-.146-.002-.296-.007-.449l-.02-.653h-1.3c.01.242.016.444.021.607.005.162.008.322.008.48 0 .555-.04.933-.119 1.131-.08.2-.235.298-.468.298-.215 0-.357-.074-.426-.227-.07-.152-.105-.459-.105-.92v-5.772c0-.461.036-.768.105-.92.07-.151.211-.227.426-.227.233 0 .389.102.468.306.079.205.119.595.119 1.172v.33c0 .094-.01.226-.028.393h1.299c.018-.21.027-.369.027-.48v-.353c0-1.825-.628-2.737-1.885-2.737Zm6.208 10.647h1.3v-10.49h-1.3v10.49Zm31.794-2.06c0 .305-.045.522-.133.653-.088.13-.226.196-.411.196-.197 0-.337-.066-.42-.196-.084-.131-.126-.348-.126-.653v-6.37c0-.303.045-.52.133-.652.089-.131.225-.196.413-.196.194 0 .333.065.418.196.083.131.126.349.126.653v6.369Zm1.243-7.054a1.752 1.752 0 0 0-.084-.361 1.718 1.718 0 0 0-.804-.943 1.835 1.835 0 0 0-.9-.229 1.84 1.84 0 0 0-.901.228 1.718 1.718 0 0 0-.803.944c-.037.1-.067.22-.091.361a3.842 3.842 0 0 0-.041.512c-.005.199-.007.456-.007.77v5.158c0 .316.002.572.007.771.004.2.018.37.04.51.025.143.055.264.092.364.037.099.089.207.153.321.16.273.375.485.65.637.275.152.575.229.902.229.325 0 .625-.077.9-.229.274-.152.49-.364.649-.637.065-.114.117-.222.154-.321.037-.1.065-.221.084-.363.018-.141.032-.311.041-.51.01-.2.015-.456.015-.772v-5.158c0-.314-.006-.571-.015-.77a6.052 6.052 0 0 0-.041-.512Zm6.238 5.386.447-4.859.447 4.86h-.894Zm-.35-6.762-1.27 10.49h1.256l.224-2.359h1.173l.237 2.359h1.271l-1.215-10.49h-1.676Zm8.487 8.068c0 .409-.066.687-.196.834-.131.147-.373.22-.727.22h-.167v-7.753h.167c.354 0 .596.076.727.227.13.153.196.429.196.826v5.646Zm.049-7.942c-.247-.084-.598-.125-1.055-.125h-1.382v9.122h-1.788v-9.122h-1.299v10.489h4.47c.456 0 .807-.042 1.054-.125.247-.085.467-.236.663-.457.391-.419.586-1.032.586-1.84v-5.646c0-.796-.195-1.41-.586-1.84a1.557 1.557 0 0 0-.663-.456Zm-11.234 6.055-1.719-6.18h-1.117v10.489h1.299v-5.504l1.537 5.504h1.297v-10.49h-1.297v6.181Zm15.143 2.249c0 .305-.043.522-.132.653-.089.13-.226.196-.412.196-.195 0-.335-.066-.419-.196-.084-.131-.126-.348-.126-.653v-6.37c0-.303.044-.52.132-.652.09-.131.227-.196.413-.196.196 0 .335.065.419.196.084.131.125.349.125.653v6.369Zm1.285-6.542a6.327 6.327 0 0 0-.042-.512 1.708 1.708 0 0 0-.083-.361 2.404 2.404 0 0 0-.154-.323 1.704 1.704 0 0 0-.65-.62 1.835 1.835 0 0 0-.9-.229c-.326 0-.627.077-.901.228-.275.152-.491.36-.65.621a2.24 2.24 0 0 0-.153.323c-.037.1-.067.22-.09.361a3.668 3.668 0 0 0-.042.512c-.005.199-.008.456-.008.77v5.158c0 .316.003.572.008.771.005.2.018.37.041.51.024.143.054.264.09.364a2.2 2.2 0 0 0 .155.321c.158.273.374.485.649.637.274.152.575.229.901.229.326 0 .626-.077.9-.229.276-.152.492-.364.65-.637.065-.114.116-.222.154-.321.037-.1.065-.221.083-.363.019-.141.033-.311.042-.51.01-.2.014-.456.014-.772v-5.158c0-.314-.004-.571-.014-.77Zm-24.82 1.471-.014.384c-.005.104-.015.189-.028.252a.7.7 0 0 1-.063.174c-.121.261-.387.392-.795.392h-.183v-3.192h.183c.175 0 .325.02.446.062a.54.54 0 0 1 .28.212c.064.101.11.242.139.425.028.185.042.418.042.7 0 .242-.002.438-.008.591Zm.942 1.58c.084-.168.151-.346.203-.534.05-.189.085-.402.104-.638.02-.236.028-.516.028-.841 0-.493-.04-.913-.119-1.259a2.89 2.89 0 0 0-.356-.896 1.781 1.781 0 0 0-.306-.37 1.27 1.27 0 0 0-.392-.236 2.246 2.246 0 0 0-.524-.125c-.2-.026-.43-.04-.691-.04h-1.27v10.49h1.298v-4.45c.103-.01.177-.019.223-.024.048-.005.127-.019.238-.04l.754 4.514h1.397l-.907-5.016c.13-.19.237-.368.32-.535Zm15.912-97.721h-.359l-.003.013a13.58 13.58 0 0 1-.249 1.076 2.348 2.348 0 0 1-.503.126 7.269 7.269 0 0 1-.929.048c-.535 0-1.05-.018-1.532-.053a21.57 21.57 0 0 1-.015-.939l-.004-.698V60.5c.289-.023.573-.034.843-.034.922 0 1.214.057 1.298.104.118.069.178.26.178.567v.303h.37l-.002-.018c-.023-.44-.034-.802-.034-1.105 0-.285.011-.674.034-1.19l.001-.017h-.37v.337c0 .276-.049.44-.146.492-.1.053-.546.08-1.325.08-.242 0-.52-.012-.847-.034V59l.01-.76c.009-.28.012-.577.01-.91.482-.038.953-.058 1.4-.058.558 0 1.036.071 1.419.213.035.236.053.535.053.89v.017h.369v-.016c.013-.622.083-1.133.207-1.521l.006-.02-.02-.002a9.576 9.576 0 0 0-.932-.034l-.899.005-1.898.029c-.165 0-.395-.006-.666-.017l-.524-.017h-.55v.342l.395.041c.234.023.375.05.418.077a.265.265 0 0 1 .1.12c.023.05.046.219.066.5.023.28.034.646.034 1.089v2.712c0 .7-.013 1.16-.037 1.37-.026.206-.073.331-.143.385-.07.053-.249.08-.53.08h-.17v.344h.017c.67-.023 1.172-.034 1.536-.034.378 0 .978.01 1.888.033l.777.016c.353 0 .73-.016 1.117-.05h.016l-.01-.24c0-.242.044-.727.133-1.442l.002-.02Zm-7.518-5.29c-.278 0-.641-.012-1.077-.034l-.018-.001v.343l.44.046.202.014c.171.006.254.078.254.218 0 .183-.22.824-.653 1.907l-1.291 3.227-1.33-3.386-.639-1.707a.499.499 0 0 1-.024-.139c0-.06.021-.104.066-.133.032-.02.113-.045.317-.045h.504v-.345l-.017.001c-.533.022-.993.034-1.368.034-.357 0-.799-.012-1.313-.034l-.017-.001v.345h.219c.29 0 .384.044.411.082.042.057.186.399.443 1.043l1.77 4.42c.154.385.306.802.452 1.238l.004.012h.534l.004-.012c.132-.456.355-1.07.666-1.83l1.666-4.065c.227-.554.331-.731.379-.782.068-.07.18-.106.332-.106h.214v-.345l-.017.001c-.447.022-.821.034-1.113.034Zm-7.26 5.303c-.085.424-.169.786-.25 1.076a2.32 2.32 0 0 1-.504.126 7.3 7.3 0 0 1-.928.048 21.13 21.13 0 0 1-1.534-.053 23.428 23.428 0 0 1-.013-.939l-.006-.698V60.5c.29-.023.573-.034.844-.034.74 0 1.177.035 1.299.104.117.068.176.259.176.567v.303h.37v-.018c-.024-.438-.034-.8-.034-1.105 0-.289.01-.678.034-1.19v-.017h-.37v.337c0 .276-.05.441-.146.492-.1.053-.546.08-1.325.08-.242 0-.52-.012-.848-.034V59l.01-.76c.01-.321.013-.62.01-.91a17.8 17.8 0 0 1 1.402-.058c.559 0 1.036.071 1.417.213.036.24.054.54.054.89v.017h.368v-.016c.014-.621.084-1.133.208-1.521l.006-.02-.02-.002a9.778 9.778 0 0 0-.931-.034l-.9.005-1.898.029c-.165 0-.395-.006-.665-.017l-.524-.017h-.551v.342l.396.041c.235.024.375.05.416.077a.258.258 0 0 1 .1.12c.025.051.048.22.069.5.02.279.031.635.031 1.089v2.712c0 .703-.012 1.164-.036 1.37-.025.201-.072.33-.142.385-.07.053-.249.08-.53.08h-.17v.344h.016c.68-.024 1.167-.034 1.537-.034.376 0 .976.01 1.888.033l.775.016c.354 0 .73-.016 1.118-.05h.016l-.01-.24c0-.24.045-.726.134-1.442l.002-.02h-.36l-.002.014Zm-7.57-5.303c-.29 0-.705-.012-1.235-.034l-.018-.001v.343l.386.038c.325.031.512.106.556.223.048.12.071.829.071 2.168v3.13a38.453 38.453 0 0 1-1.29-1.52l-1.69-2.074a46.93 46.93 0 0 1-.895-1.138 45.937 45.937 0 0 0-.923-1.163l-.006-.007-.008.001c-.284.022-.546.034-.78.034-.217 0-.54-.012-.957-.034l-.018-.001v.345h.323c.152 0 .27.028.352.082a.617.617 0 0 1 .19.185c.042.066.067.195.074.383.01.439.015.9.015 1.368v2.454c0 .618-.019 1.114-.054 1.475-.017.17-.057.285-.118.34-.063.056-.2.084-.41.084h-.372v.345h.017c.8-.025 1.201-.034 1.386-.034.278 0 .597.01.975.033l.018.001v-.343l-.334-.026c-.257-.022-.414-.058-.464-.107-.051-.047-.089-.188-.112-.416-.03-.302-.044-.833-.044-1.624v-3.366l3.523 4.35c.405.497.793.951 1.152 1.349a.629.629 0 0 0 .214.16c.073.031.33.081.784.152l.02.003v-.02a34.804 34.804 0 0 1-.08-2.148v-2.227c0-1.616.024-2.067.045-2.16.044-.194.216-.293.512-.293h.397v-.345l-.017.001c-.485.022-.883.034-1.185.034Zm-8.518 5.303c-.083.419-.167.781-.25 1.076-.18.064-.35.107-.503.126a7.283 7.283 0 0 1-.928.048c-.536 0-1.052-.018-1.534-.053a22.4 22.4 0 0 1-.014-.939l-.005-.698V60.5c.29-.023.573-.034.843-.034.74 0 1.178.035 1.299.104.117.068.177.259.177.567v.303h.37v-.018a21.575 21.575 0 0 1-.035-1.105c0-.284.011-.673.034-1.19v-.017h-.37v.337c0 .276-.048.441-.146.492-.1.053-.546.08-1.324.08-.243 0-.52-.012-.848-.034V59l.01-.76c.01-.323.013-.621.01-.91a17.78 17.78 0 0 1 1.401-.058c.559 0 1.036.071 1.419.213.034.237.052.537.052.89v.017h.37v-.016c.013-.622.083-1.134.207-1.521l.006-.02-.021-.002a9.565 9.565 0 0 0-.93-.034l-.9.005-1.898.029c-.165 0-.396-.006-.666-.017l-.524-.017h-.55v.342l.395.041c.235.023.375.05.417.077a.27.27 0 0 1 .1.12c.024.05.047.218.068.5.022.283.033.639.033 1.089v2.712c0 .7-.013 1.161-.037 1.37-.025.202-.073.331-.143.385-.07.053-.249.08-.53.08h-.17v.344h.017c.67-.023 1.172-.034 1.536-.034.377 0 .977.01 1.888.033l.775.016c.355 0 .732-.016 1.119-.05h.016l-.01-.24c0-.238.044-.724.133-1.442l.003-.02h-.36l-.002.014Zm-7.385-1.071c-.376 0-.941-.016-1.68-.049h-.018v.343l.6.051c.114.01.464.04.51.065.029.015.05.05.062.108.014.059.02.287.02.697 0 .308-.01.601-.029.873-.613.23-1.191.348-1.719.348-1.013 0-1.825-.364-2.413-1.081-.5-.608-.753-1.365-.753-2.251 0-.923.282-1.675.836-2.236.51-.514 1.254-.775 2.212-.775.54 0 1.028.079 1.452.234.428.158.683.285.78.388.034.036.074.16.074.557v.343h.343l.001-.016c.051-.621.12-1.113.208-1.46l.004-.015-.436-.119c-.526-.15-.936-.247-1.253-.296a6.969 6.969 0 0 0-1.05-.074c-.926 0-1.703.156-2.31.463a3.491 3.491 0 0 0-1.425 1.3c-.34.555-.511 1.197-.511 1.908 0 .687.16 1.31.477 1.853.317.542.775.972 1.363 1.275.588.305 1.28.46 2.056.46.5 0 1.035-.053 1.587-.157a8.273 8.273 0 0 0 1.488-.414l.012-.005-.002-.012a7.997 7.997 0 0 1-.075-1.02c0-.279.025-.56.074-.834l.34-.223.008-.005v-.275l-.02.003a5.816 5.816 0 0 1-.813.048Zm32.523-13.15c-1.66-.445-2.628-2.142-2.441-4.09.146-1.532 1.324-2.2 1.813-2.537.758 1.033 2.93 3.514 4.743 5.39-1.624 1.407-3.04 1.526-4.115 1.238Zm-.68-11.99c.163-.417.488-.724.939-.887 1.37-.495 2.631.174 3.122 1.055.563 1.012.124 2.22-1.118 3.078-.28.194-1.21.75-1.21.75s-1.022-1.107-1.508-2.073c-.353-.703-.438-1.383-.226-1.923Zm20.617 13.96c3.186 0 5.1-1.706 5.1-1.706l.56 1.16a.044.044 0 0 0 .04.025h.316l.037-4.83-.342-.051c-.648 3.029-2.808 4.907-5.646 4.907-3.445 0-5.503-3.63-5.503-7.138 0-3.668 1.764-7.616 5.638-7.616 3.37 0 4.998 2.688 5.402 5.217l.345.042.038-5.034-.282-.047c-.005-.001-.013 0-.04.03-.042.048-.685 1.01-.685 1.01s-1.77-1.695-4.778-1.695c-4.522 0-7.749 3.307-7.815 7.922-.071 4.855 3.196 6.645 3.196 6.645s-1.178 1.51-2.943 1.573c-3.008.108-5.95-4.246-6.565-4.782.657-.841 1.848-2.725 2.593-3.218.71-.469 1.357-.52 1.538-.52l.056-.316h-3.89a8.87 8.87 0 0 1-.062.315c.352.006.853.023 1.093.208.183.141.213.31-.115.89-.38.672-1.104 1.686-1.564 2.24-.835-.975-3.511-4.088-4.345-4.911 1.906-.857 3.652-1.689 3.715-3.278.03-.785-.572-2.19-2.318-2.62-.543-.132-1.936-.335-3.184.64a3.77 3.77 0 0 0-1.435 3.02c.005.904.266 1.802 1.033 2.959-3.97 2-3.433 4.91-3.25 5.752.258 1.18 1.642 3.003 4.264 2.948 2.765-.058 4.48-2.42 4.48-2.42s.998 1.012 1.625 1.576c2.541 2.29 5.091 2.568 6.637 2.11 1.97-.586 2.94-1.996 2.94-1.996s1.512.99 4.116.99Zm15.565-.476c-3.47 0-5.287-3.567-5.287-7.09 0-5.307 2.789-7.683 5.553-7.683 1.766 0 5.413 1.83 5.413 7.489 0 3.531-1.991 7.284-5.68 7.284Zm.107-15.25c-2.615 0-7.563 1.687-7.563 8.072 0 2.843 1.57 7.655 7.456 7.655 6.199 0 7.853-4.865 7.853-7.74 0-5.487-4.015-7.987-7.746-7.987Zm-101.61.522.042-.307-5.472-.023-.266.305c1.113.032 1.352.136 1.673.503.23.265.299.93.303 1.244.005.383-.002 8.148-.002 8.148 0 1.83-.179 2.792-.658 3.547-.536.842-1.406 1.325-2.387 1.325h-.003c-.733 0-1.551-.406-1.699-1.179-.017-.092-.033-.502-.094-.666-.124-.336-.44-.604-.816-.702-.546-.143-.935.098-1.105.335-.226.315-.211.8.035 1.182.497.77 1.804 1.222 2.86 1.388 1.006.159 2.087.082 2.966-.21.686-.23 1.188-.56 1.73-1.146.765-.825 1.106-2.205 1.106-4.56 0-2.353-.004-7.466 0-7.804.004-.339-.01-.68.257-.958.398-.417 1.314-.427 1.53-.422Zm2.827 8.569 2.379-6.234 2.508 6.234H53.47Zm9.805 5.715c-.402-.21-.736-.705-1.152-1.707a676.48 676.48 0 0 1-2.339-5.827c-1.005-2.522-1.955-4.904-2.2-5.47A89.88 89.88 0 0 1 56.79 34a3.975 3.975 0 0 1-1.526 1.588c.11.236.28.689.28.689s-4.094 10.572-4.44 11.438c-.32.8-.687 1.326-1.518 1.472l-.05.39 3.963.005.057-.388c-.238-.024-1.184-.13-1.443-.333-.301-.238-.448-.506-.252-1.103.306-.932 1.418-3.992 1.418-3.992h5.286s1.313 3.485 1.335 3.55c.197.57.353 1.02.126 1.345-.253.364-.816.532-1.703.517l-.063.399h5.735l.05-.361a2.748 2.748 0 0 1-.769-.251Zm13.149-13.112s-1.77-1.694-4.779-1.694c-4.522 0-7.804 3.35-7.804 7.966 0 4.787 2.914 7.76 7.605 7.76 3.228 0 5.099-1.706 5.099-1.706l.56 1.16a.045.045 0 0 0 .04.025h.316l.037-4.83-.342-.051c-.648 3.029-2.808 4.907-5.646 4.907-3.444 0-5.502-3.63-5.502-7.138 0-3.668 1.764-7.616 5.637-7.616 3.37 0 4.998 2.688 5.402 5.217l.346.042.037-5.034-.282-.047c0 .001-.01-.002-.04.03-.042.048-.684 1.01-.684 1.01ZM87.01 49.41c-3.47 0-5.286-3.567-5.286-7.09 0-5.307 2.788-7.683 5.552-7.683 1.766 0 5.413 1.83 5.413 7.489 0 3.531-1.99 7.284-5.68 7.284Zm.107-15.25c-2.615 0-7.563 1.687-7.563 8.072 0 2.843 1.57 7.655 7.456 7.655 6.199 0 7.853-4.865 7.853-7.74 0-5.487-4.015-7.987-7.746-7.987Zm12.195 1.05a.34.34 0 0 1 .33-.334c2.26-.088 3.646-.032 4.24.171 1.236.424 1.918 1.506 1.918 3.046 0 1.482-.59 3.352-3.855 3.352H99.28l.033-6.235Zm7.305 10.312c0 2.357-1.291 3.592-3.819 3.672-.736.023-1.393.024-1.491.022-1.47-.042-1.992-.399-1.992-1.361l-.017-5.833 2.688.003c2.534 0 4.631.264 4.631 3.497Zm-8.493 4.138 4.127.012c4.228 0 6.557-1.512 6.557-4.259 0-1.884-1.24-3.306-3.32-3.804l-.472-.114.453-.174c1.567-.604 2.43-1.821 2.43-3.428 0-1.198-.716-2.387-1.741-2.892-1.138-.569-2.272-.683-3.732-.683l-6.694-.008-.061.42c1.359.09 1.653.208 1.653 1.142v12.307c0 .798-.539.966-1.6.997l-.063.417c.075.034 1.94.058 2.463.067Z" fill="#FEFEFE" fill-rule="evenodd"/></svg>