<svg width="200" height="200" xmlns="http://www.w3.org/2000/svg"><path d="M136 106.8a3.892 3.892 0 01-2.805-1.195l-1.032 1.458c.834.827 2.05 1.39 3.758 1.39 2.368 0 3.533-1.207 3.533-2.808 0-3.269-5.068-2.337-5.068-3.715 0-.525.45-.867 1.243-.867.9 0 1.853.302 2.568.958l1.045-1.39c-.873-.802-2.038-1.222-3.44-1.222-2.078 0-3.348 1.208-3.348 2.665 0 3.295 5.081 2.232 5.081 3.754 0 .512-.49.972-1.535.972zm-12.704 0a3.892 3.892 0 01-2.805-1.195l-1.032 1.458c.833.827 2.05 1.39 3.758 1.39 2.368 0 3.532-1.207 3.532-2.808 0-3.269-5.067-2.337-5.067-3.715 0-.525.45-.867 1.243-.867.9 0 1.853.302 2.567.958l1.046-1.39c-.874-.802-2.038-1.222-3.44-1.222-2.078 0-3.348 1.208-3.348 2.665 0 3.295 5.081 2.232 5.081 3.754 0 .512-.49.972-1.535.972zm-9.463-5.618V99.54h-6.245v8.755h6.245v-1.64h-4.366v-1.996h4.274v-1.64h-4.274v-1.838h4.366zm-12.757 7.114v-8.755h-1.879v5.5l-4.089-5.5h-1.931v8.755h1.879v-5.71l4.207 5.71h1.813zm-13.869-8.755h-7.039v1.64h2.58v7.115h1.893v-7.114h2.566V99.54zm-14.886 8.756H74.2V99.54h-1.88v8.756zm-6.076-7.115V99.54H60v8.755h1.879v-3.636h4.274v-1.64h-4.274v-1.838h4.366zm40.56 15.848h32.649v-.507h-32.65v.507zm-46.805 0h30.94v-.507H60v.507zm42.242 1.95v-1.874l1.712-2.862h-.825l-.75 1.313c-.17.304-.41.758-.49.934a18.95 18.95 0 00-.492-.941l-.743-1.306h-.839l1.712 2.862v1.874h.715zm-4.772-2.219h-1.296v1.57h1.276c.634 0 .865-.318.865-.785 0-.487-.306-.785-.845-.785zm-1.296-.643h1.282c.471 0 .662-.29.662-.602 0-.351-.184-.622-.662-.622h-1.282v1.224zm2.053.305c.375.101.805.446.805 1.103 0 .96-.594 1.454-1.637 1.454H95.5v-4.736h1.964c.832 0 1.371.433 1.371 1.232 0 .48-.259.778-.607.947zm18.439-23.389h10.072c-.208-26.173.979-39.698 12.737-57.56v-9.37h-28.09v9.657h18.576c-11.74 17.81-13.757 38.979-13.295 57.273zM95.25 55.348h1.39c2.712 0 4.498-.886 5.303-2.62.19-.357.333-.746.423-1.156.093-.413.154-.95.185-1.642.028-.667.057-1.484.09-2.455.03-.986.044-2.25.044-3.756 0-1.799-.09-3.308-.27-4.485-.182-1.19-.494-2.127-.93-2.79-.445-.675-1.086-1.16-1.907-1.442-.799-.273-1.788-.411-2.937-.411H95.25v20.757zm.228 37.489h-8.322V26.112H95.3c1.668 0 3.145.085 4.428.252 1.283.166 2.402.433 3.355.8a8.117 8.117 0 012.507 1.5c.716.633 1.372 1.419 1.967 2.349 1.015 1.601 1.777 3.503 2.282 5.703.507 2.202.761 4.87.761 8.004 0 2.07-.058 3.85-.178 5.35-.12 1.501-.344 2.852-.671 4.052a18.062 18.062 0 01-1.297 3.4c-.537 1.07-1.225 2.203-2.059 3.404l5.817 31.91h-8.95l-4.831-28.711c-.716.135-1.223.22-1.522.251-.298.033-.775.084-1.43.15v28.31zm-23.39.872c8.051 0 12.077-5.899 12.077-17.7 0-.934-.015-1.883-.043-2.852l-.136-4.151h-8.319c.059 1.534.102 2.818.133 3.852.03 1.035.045 2.05.045 3.05 0 3.536-.255 5.937-.76 7.2-.508 1.268-1.508 1.902-2.997 1.902-1.374 0-2.282-.483-2.73-1.45-.446-.966-.67-2.918-.67-5.851V41.003c0-2.933.224-4.884.67-5.85.448-.967 1.356-1.45 2.73-1.45 1.489 0 2.49.65 2.997 1.948.505 1.302.76 3.788.76 7.451v2.103c0 .598-.061 1.433-.178 2.5h8.32c.118-1.333.178-2.35.178-3.053v-2.25C84.166 30.802 80.14 25 72.09 25 64.274 25 60 30.337 60 41.003v36.706c0 10.667 4.274 16 12.09 16zm23.685 63.268c.066.167.616 2.041.01 2.758-.441.52-2.055 1.122-2.066 1.278-.01.155 2.675-.153 2.957-1.523.227-1.11-.78-2.571-.9-2.513zm-11.014-15.76a1.44 1.44 0 00-.284.273 2.27 2.27 0 00-.439 1.03c-.089.517-.031 1.062.194 1.457 0 0 .038-.566.24-1.133.114-.317.278-.634.516-.854.207-.19.556-.398 1.03-.463.599-.082 1.395.064 2.354.76-.545-.903-1.498-1.492-2.417-1.483-.372.004-.737.11-1.068.328-.043.028-.085.054-.126.085zm20.73-1.598c.13-.101.282-.208.455-.305.27-.152.585-.282.933-.334.136-.02.281-.027.432-.023.703.02 1.52.294 2.021.661-.397-.604-.9-.962-1.422-1.137a2.585 2.585 0 00-1.848.083c-.317.14-.586.337-.774.573-.215.27-.323.59-.272.923 0 0 .176-.206.475-.44zm-7.145 1.365a2.23 2.23 0 01.733-.377c1.27-.266 2.352.07 3.434 1.634a4.06 4.06 0 00-.493-1.248 2.748 2.748 0 00-2.034-1.321 2.277 2.277 0 00-.868.047c-.193.055-.53.147-.853.344-.55.335-1.059.975-.75 2.258.04.176.06-.73.831-1.337zm-19.417 6.77l.418 4.737 1.825-.685-.309-3.497-1.934-.554zm54.447 15.076l4.858 1.4-3.293-37.348-4.561 1.975 1.396 15.834-1.708.148-1.344-15.232-4.564 1.922 2.583 29.307 4.863 1.441-1.17-13.263 1.708-.149 1.232 13.965zm-8.046-5.563l-.725-8.219-4.672.99.503 5.705-1.825-.596-1.51-17.13 1.676-.792.494 5.594 4.65-.965-.605-6.842-2.598-1.912-6.169 2.402-2.2 2.33 1.6 18.14 2.604 1.955 6.576 1.669 2.2-2.329zm-11.823 5.239c.022-.001.325-.058.664.24l-.146-.124c-.335-.274-.53-.44-.532-.453-.012.004.187-.052.465.074-.292-.232-.451-.395-.451-.404-.008.005.15-.036.38.05-.11-.108-.194-.2-.254-.27a1.128 1.128 0 01-.104-.134s.15-.05.365.007a5.006 5.006 0 01-.36-.277c-.012.006.183-.064.467.046-.283-.226-.43-.396-.431-.405-.008.004.183-.053.45.063a8.2 8.2 0 01-.45-.447c0 .001.248-.045.562.143-.348-.282-.55-.449-.557-.46 0-.002.16-.051.39.014a4.085 4.085 0 01-.402-.372c-.01.005.183-.036.451.092-.272-.227-.43-.35-.434-.36 0-.002.102-.028.262.001-.217-.228-.309-.37-.316-.375-.007-.004.14-.004.347.098-.274-.285-.387-.466-.395-.469-.006-.006.106-.002.273.07-.278-.42-.66-.77-1.158-.986-1.364-.591-4.835-2.465-4.835-2.465-2.685-1.612-4.14-1.688-5.258-1.363-1.218.352-3.735 1.463-5.053 2.064-.734.334-2.02.626-3.164.848-.908.177-1.726.31-2.109.386-.662.132-1.162.675-1.373 1.286a1.968 1.968 0 00-.111.573c-.019.592.447 1.566 1.309 2.288.21.155.649.468 1.272.557.144.02.299.03.463.02a.388.388 0 01-.161.161c.056-.001.11-.006.162-.014.374-.06.502-.135.518-.14a.678.678 0 01-.302.31.7.7 0 00.239-.078c.355-.132.466-.225.481-.234.008-.017.005.197-.23.365a.838.838 0 00.235-.095c.323-.134.425-.236.441-.241.003 0 .012.201-.233.367a.687.687 0 00.15-.075c.315-.148.414-.252.43-.26.003 0 .02.189-.195.361a.826.826 0 00.187-.09c.317-.148.414-.253.43-.259.004 0 .02.2-.174.374a.43.43 0 00.099-.078c.287-.18.374-.284.387-.297.002-.02.053.182-.161.387l.058.001a.81.81 0 00.11-.075c.296-.187.381-.303.395-.31.005-.002.044.192-.162.392a.554.554 0 00.166-.09c.302-.173.392-.286.406-.293.005-.002.037.193-.174.383a.647.647 0 00.128-.082c.297-.185.381-.3.396-.31.003 0 .042.186-.15.381a.93.93 0 00.175-.11c.295-.186.381-.302.396-.31.003 0 .045.206-.152.41a.502.502 0 00.112-.107c.263-.214.338-.326.349-.342-.001-.02.08.191-.096.427a.78.78 0 00.14-.117c.272-.22.342-.345.355-.356.004-.002.072.202-.135.436a.594.594 0 00.105-.092c.272-.218.343-.342.356-.352.003-.002.068.19-.122.417a.797.797 0 00.123-.113c.264-.228.33-.356.342-.366.005-.003.07.176-.089.4a.79.79 0 00.157-.139c.263-.227.33-.355.342-.365.005-.001.086.219-.152.475a.442.442 0 00.16-.17c.227-.253.282-.375.292-.39-.004-.023.121.199-.103.492a.76.76 0 00.194-.195c.234-.258.285-.394.297-.405.003-.002.113.21-.097.497a.84.84 0 00.153-.16c.24-.252.292-.385.304-.398.004-.002.093.181-.064.431a.809.809 0 00.108-.127c.229-.261.278-.397.29-.41.002-.003.103.184-.06.448a.487.487 0 00.123-.143c.216-.273.258-.41.27-.424.002 0 .102.165-.018.415l.05-.021a.517.517 0 00.074-.145c.176-.288.208-.42.213-.437-.007-.018.132.143.026.426a.587.587 0 00.077-.128c.18-.296.206-.438.215-.452.002-.003.097.116.057.327.19-.32.216-.46.225-.474.003-.004.087.105.061.299a.782.782 0 00.06-.108c.18-.297.203-.44.213-.452.003-.002.073.086.068.244.025-.027.47-.695.393-2.657l-.001-.054a.64.64 0 01.056.067c.375.482.604 2.04.312 2.887l.039-.06c.2-.299.25-.458.27-.466.005.02.124.238-.118.625.236-.192.482-.573.653-1.019.156.359-.061 1.116-.345 1.393.281-.104.386-.211.407-.206-.003.023-.002.184-.158.334.289-.113.378-.189.395-.2.006-.018.014.155-.169.304.271-.1.355-.18.368-.187.004 0 .01.151-.143.299.325-.094.432-.197.448-.189-.005-.024.014.168-.21.319.327-.094.422-.167.438-.178.009-.019.01.166-.197.31.325-.068.431-.13.45-.137.01-.017-.016.167-.246.284.351-.07.465-.146.481-.152.003.003-.025.17-.24.296.332-.047.466-.138.482-.126-.002-.027-.022.191-.275.311.351-.038.467-.093.488-.099.01-.015-.027.143-.23.243.303.02.425-.012.44-.012.003.003-.08.151-.324.2.324.065.479.023.494.04-.016.019-.115.167-.378.177.363.104.49.091.51.093.016-.013-.084.144-.344.156.33.067.46.105.473.112 0 0-.088.095-.25.127.23.052.32.142.327.153.005-.01-.071.061-.235.065.276.19.32.34.32.34s-.097-.014-.278-.095c.175.208.185.34.185.338 0 0-.088-.033-.24-.144.003.06.009.122.009.185l-.001.12c-.455-.435-.91-.831-1.41-1.074-.56-.274-1.22-.42-1.82-.38-.312.049-.548.196-.679.492-.071-.07-.105-.181-.116-.306l-.055.026c-.065.212.05.47.04.471a.627.627 0 01-.292-.32c-.001.33.168.49.157.51-.033-.01-.255-.079-.36-.335a.206.206 0 00.011.106c.093.25.217.43.205.44.022-.011-.229.013-.395-.306l.025.063c.126.35.25.487.263.495.027.019-.26.016-.413-.265.18.347.322.478.338.482.025.018-.22.036-.425-.202.174.326.311.44.324.446.026.012-.194.05-.389-.148.174.294.306.406.32.413.023.013-.196.041-.402-.156.185.296.323.41.337.415.022.009-.188.05-.397-.098.205.277.351.378.365.382.023.009-.167.059-.378-.085.231.292.388.381.403.385.024.007-.165.072-.386-.02.238.23.39.302.405.306.023.003-.143.08-.362-.014.266.232.426.29.443.29.026.002-.139.094-.369.017l.016.05c.24.116.408.119.414.133-.016.012-.136.106-.334.096l.017.044c.232.05.368.042.375.042.017-.009-.071.126-.284.16.27.1.437.061.446.07.004.003-.095.15-.316.17l.027.044c.272.054.436.025.443.032.003.002-.09.139-.304.177.28.063.414.038.427.033.02-.01-.055.132-.255.19.281.029.445-.05.454-.04a.408.408 0 01-.273.243c.337.012.524-.069.534-.061 0 0-.058.177-.291.26.344-.01.51-.078.523-.085.02-.017-.046.203-.327.285a.89.89 0 00.19-.004c.243-.033.4-.149.41-.138-.005-.027.022.247-.317.349l.05.012c.286-.112.438-.245.468-.24-.008.019-.018.232-.23.406a1.98 1.98 0 00.377-.266c.007-.02.052.197-.156.385.265-.132.387-.255.396-.253 0-.016.021.175-.162.362.204-.136.309-.266.325-.254-.018-.014.052.152-.082.351.165-.152.243-.262.248-.264a.49.49 0 01.02.35c.094-.147.14-.255.156-.264.011.016.103.132.055.312.096-.145.126-.267.136-.269-.016-.011.123.095.12.301.083-.14.11-.26.123-.262.011.012.098.098.09.248.185-.16.185-.447.187-.462-.03-.746.29-1.128.632-1.32a.995.995 0 01.197-.114c.42-.199.703-.126.701-.13 0 .001-.029.045-.094.108a.94.94 0 01.203-.048c-.001-.005-.007.084-.074.201.089-.058.139-.092.146-.091-.005-.012.013.086-.036.224.124-.07.194-.115.2-.113-.004-.013.02.104-.047.263.13-.082.206-.133.214-.131-.005-.013.017.1-.048.256.158-.107.254-.174.264-.172-.005-.014.022.133-.077.32.183-.148.303-.233.313-.233-.005-.014.036.136-.052.334.185-.157.32-.239.328-.236-.005-.01.04.157-.072.37.183-.165.294-.273.305-.271-.007-.016.052.154-.05.38.143-.21.221-.34.231-.34-.009-.01.052.114.02.321.108-.188.18-.293.188-.297-.005-.01.084.13.06.366.113-.199.203-.308.208-.308-.005-.008.08.131.057.366.127-.216.201-.347.212-.35-.01-.012.092.144.053.405.14-.26.223-.413.231-.417 0 0 .08.112.09.31.082-.222.157-.348.164-.349-.008-.006.114.137.113.404.065-.28.08-.447.09-.454-.014-.006.143.114.188.399.036-.313.064-.503.07-.51-.012-.007.176.101.248.393.022-.315.081-.512.088-.517-.008-.004.134.095.202.332.017-.238.028-.386.036-.393-.015-.006.166.099.24.381a3.799 3.799 0 01.01-.515c-.011-.006.137.067.24.275-.033-.295-.017-.485-.011-.49-.01-.002.178.08.29.345-.05-.309-.086-.503-.078-.513-.017-.002.19.06.33.328a3.837 3.837 0 01-.12-.518c-.014-.003.203.046.364.31-.13-.33-.17-.56-.166-.569-.01 0 .179.033.348.244-.103-.284-.174-.46-.167-.472-.018.002.158.02.33.195a4.126 4.126 0 01-.216-.466s.226.018.438.257c-.17-.342-.232-.575-.229-.584-.012 0 .242.031.454.329-.18-.356-.303-.571-.298-.585-.021.003.252.004.491.3a7.684 7.684 0 01-.372-.599c0-.001.168-.005.367.129-.17-.277-.245-.465-.243-.472-.012 0 .277.003.533.328-.275-.37-.456-.579-.455-.594-.02.007.233-.04.513.184-.276-.311-.442-.479-.447-.494 0-.002.237-.052.51.128-.257-.246-.402-.404-.401-.413-.01.004.186-.038.444.103-.226-.237-.364-.37-.364-.38-.015.003.236-.04.54.177-.264-.3-.445-.455-.444-.468-.018.007.202-.04.474.133a6.477 6.477 0 01-.421-.403c-.015.007.228-.06.533.138-.328-.28-.51-.456-.506-.467-.011.01.273-.077.626.19l-.04-.042c-.31-.311-.498-.496-.498-.508-.015.005.258-.048.583.2-.313-.32-.52-.486-.52-.503zm-13.763 5.954c-.464-2.29-.684-3.305-.684-3.305s-.253-1.637-1.042-1.465c-.32.805.496 5.62 1.26 6.525.765.905.83.155.466-1.755zm-2.818 2.734c-.001.015.565.228 1.066.386-.485-.2-1.1-.783-1.075-.795-.003.014.46.177.92.317-.465-.21-1.08-.854-1.058-.865 0 .011.35.151.74.298-.419-.275-.855-.798-.83-.806-.003.013.41.21.83.383-.439-.274-.929-.863-.906-.873-.002.014.443.229.882.42-.449-.26-.971-.887-.946-.898-.004.017.444.232.886.424-.427-.244-.918-.885-.894-.892-.002.01.274.143.593.285-.347-.295-.653-.692-.633-.698-.003.013.357.197.747.376-.41-.288-.822-.807-.798-.816-.002.014.369.202.767.378-.41-.279-.82-.761-.796-.771-.002.013.296.154.646.3-.339-.253-.642-.597-.623-.607-.002.015.395.171.796.314-.358-.173-.828-.641-.814-.649.002.008.303.073.622.155-.312-.203-.631-.524-.62-.53.002.01.332.08.666.167-.332-.164-.703-.571-.685-.579.002.012.457.112.812.192-.36-.086-.863-.634-.841-.642.001.012.485.118.844.199-.331-.098-.851-.644-.836-.65.001.007.468.09.826.195-.321-.098-.83-.634-.816-.64.001.007.397.079.74.17-.34-.124-.706-.634-.667-.647.003.023.366.133.67.207-.243-.069-.52-.387-.625-.547-.844-.018-2.66-.017-4.522-1.017a3.53 3.53 0 01-1.098-1.06l.041.544.103 1.368v.003l-.052.02c-.146.055-.589.222-1.12.443-.439.183-.938.402-1.378.623-.143.072-.28.143-.406.215a5.028 5.028 0 00-.397.244c-.04.167.016.812-.033 1.075.19-.226.477-.423.487-.393-.03 0-.162.495-.242.807.195-.231.5-.43.51-.399-.03 0-.18.512-.269.82.194-.234.5-.427.503-.407-.018 0-.179.532-.248.818a.805.805 0 01-.041.112c.156-.288.538-.56.54-.536-.017 0-.151.546-.172.821-.006.04-.015.078-.024.115.165-.28.439-.514.445-.487-.024 0-.165.604-.141.923 0 .066-.007.127-.016.185.135-.378.383-.746.397-.728-.018.002-.067.617-.054 1.064.134-.333.341-.608.351-.576-.013.01-.117.536-.061.967.132-.272.29-.474.301-.447-.014.01-.119.506-.079.929.136-.304.311-.56.322-.543-.018.003-.067.619-.054 1.064.11-.31.262-.57.273-.555-.016.004-.016.474.016.889.106-.277.236-.498.246-.484-.017.004-.017.61.03 1.052.087-.362.259-.712.274-.697-.017.008.028.595.095 1.031.09-.325.232-.607.247-.59-.018.005.009.501.08.913.06-.323.179-.605.203-.585-.02.008.018.406.114.778.048-.319.163-.603.181-.582-.017.009.036.379.139.719.02-.305.092-.564.116-.548-.019.01.076.416.227.774-.015-.336.028-.641.047-.631-.014.01.132.397.307.757-.022-.31.014-.577.04-.564-.016.013.093.322.256.635-.017-.304.02-.562.05-.548-.02.011.077.303.23.603-.009-.31.036-.582.062-.567-.017.012.096.345.257.668-.04-.328-.009-.629.02-.616-.015.012.1.299.266.59-.037-.305-.002-.59.037-.574-.025.02.132.38.339.673-.06-.318-.044-.64-.014-.629-.014.017.181.373.395.671-.093-.324-.112-.642-.08-.633-.014.015.18.329.414.613-.068-.302-.05-.6-.007-.581-.024.022.147.357.372.61-.098-.321-.11-.65-.07-.637-.017.016.133.27.333.513-.029-.287.007-.54.028-.522-.014.01.094.274.25.532-.056-.294-.007-.606.023-.583-.019.02.204.45.439.648-.127-.298-.122-.676-.083-.655-.016.024.255.408.509.576-.167-.299-.22-.658-.176-.64-.017.022.266.372.564.542-.194-.273-.326-.616-.292-.616-.006.022.36.291.684.45l.056-.027c-.356-.227-.663-.61-.637-.616-.002.014.355.164.717.27-.4-.26-.779-.646-.76-.655zm-7.026-12.138l.293-.14c.042-.631.249-1.195.681-1.5 1.245-.875 3.105-.725 5.304-1.379l2.162-2.336-.725-8.216a5.238 5.238 0 01-1.239-2.005c-1.31-3.87-1.862-4.27-2.085-6.81a35.144 35.144 0 01-.103-2.389l-1.22-1.086-1.099.835 1.645 18.648-1.738.953-1.609-18.245-.714.547c-.257.475-.561.97-.882 1.36.663 1.533 1.577 3.529 1.789 6.623.011 2.856-2.048 4.149-3.836 3.846l.825 9.354 2.551 1.94zm-3.211 1.747l-.5-5.646-2.056-1.51 1.78-1.931-.377-4.27c-1.432-.67-2.178-2.04-2.578-2.849-.474-.956-.514.921-2.623 1.409-1.689.353-3.491-.596-4.18-2.903l-2.517-1.379 2.115 23.976 4.58-2.026-.64-7.276 1.804-.767.634 7.182 4.558-2.01zm-11.88 4.275l-.733-8.297-4.672.99.553 6.268-1.689.951-2.047-23.228 1.836 1.023.61 6.907 4.649-.964-.687-7.801-2.6-1.913-6.705-3.665-2.198 2.33 2.699 30.608 2.603 1.956 6.18-2.836 2.201-2.329zm1.394-23.18c.115.565.343 1.122.673 1.6.339.49.783.897 1.322 1.14-.04-.081-.06-.137-.052-.137 0 .012.278.134.51.244-.084-.127-.137-.232-.126-.23.007.01.312.126.569.228a1.965 1.965 0 01-.158-.233c-.016-.028-.023-.045-.02-.045a.24.24 0 00.049.022c.094.039.316.119.521.2-.104-.133-.168-.252-.144-.26-.002.036.305.134.581.23-.152-.177-.264-.346-.24-.358-.01.031.382.173.702.315a2.81 2.81 0 01-.403-.442c.006.003.339.11.644.217-.203-.195-.366-.428-.354-.427.007.007.337.13.64.239-.242-.198-.463-.459-.452-.461.005.006.259.084.535.174-.213-.194-.386-.418-.372-.418.006.007.306.116.61.22-.226-.188-.447-.44-.447-.44s.393.083.707.2c-.303-.151-.635-.439-.617-.447.008.01.264.05.548.096a4.769 4.769 0 01-.473-.322c0 .001.08.003.196.01l.085-.066a3.76 3.76 0 01-.28-.217s.158-.025.338-.028c-.186-.129-.35-.248-.352-.248-.001.002.169 0 .384.024-.203-.141-.393-.287-.395-.286 0-.001.13-.001.307.018-.174-.104-.372-.265-.376-.262-.002-.003.13-.036.292-.05l-.186-.11a2.421 2.421 0 00-.185-.1c-.006 0 .133-.015.32-.004h.002c-.232-.153-.457-.304-.463-.3a2.12 2.12 0 01.295.012c-.162-.111-.356-.247-.367-.245-.006 0 .098-.034.24-.049-.217-.137-.415-.244-.43-.223-.01-.014.136-.03.337-.013-.118-.06-.233-.12-.32-.16-.69.036-1.78.338-2.595 1 .649-.992 1.778-1.32 2.484-1.386-.737-.222-2.535.396-3.126 1.88 0 0-.438-1.104-.047-1.94-.229.19-.614.807-.582 1.605-.322-.19-.405-.851-.405-.851-.025.352.003.72.076 1.084zm5.178-5.035l-.018.096c-.1.31-.196 1.257.656 3.823a32.796 32.796 0 00.522 1.454c.808 2.115 1.032 3.088 2.73 4.257.057.038.122.075.19.11l-.02-.234c-.054-.122-.08-.212-.066-.21 0 .004.019.021.051.046.135.103.51.346.76.456-.178-.219-.313-.493-.293-.494 0 .014.258.13.512.245l.229.105c-.135-.208-.224-.414-.211-.41.009.014.483.274.808.447-.233-.233-.434-.555-.415-.553.008.014.447.196.8.348-.232-.224-.427-.522-.385-.537-.004.04.364.184.707.314-.178-.22-.31-.47-.283-.477-.006.032.48.244.81.405-.256-.22-.49-.614-.49-.61 0-.006.352.124.647.251-.196-.224-.34-.517-.338-.51.002-.007.31.132.579.253-.19-.216-.336-.54-.344-.536-.002-.012.32.107.564.226-.206-.225-.363-.542-.363-.536a9.13 9.13 0 01.529.225c-.218-.24-.363-.52-.384-.52-.013-.016.312.033.61.102-.318-.214-.577-.444-.558-.453.007.012.285.039.625.077-.295-.187-.559-.394-.56-.394-.002 0 .258-.024.573-.019-.248-.15-.544-.453-.544-.453s.249-.075.513-.1c-.264-.193-.5-.376-.51-.374-.007-.002.147-.019.366-.016-.184-.18-.345-.371-.348-.37a1.212 1.212 0 01.304.006c-.167-.128-.323-.272-.332-.27-.006-.002.149-.076.346-.124-.215-.108-.414-.243-.414-.243s.18-.1.396-.175c-.249-.111-.476-.224-.483-.223-.003.003.17-.08.403-.146-.224-.107-.436-.226-.442-.221a1.8 1.8 0 01.386-.175c-.236-.1-.494-.252-.5-.247a1.608 1.608 0 01.313-.199c-.201-.03-.43-.11-.43-.11s.08-.133.19-.266c-.21-.063-.415-.134-.423-.137-.002.009.148-.142.36-.26-.236-.078-.483-.186-.49-.175-.011-.005.164-.15.387-.262-.255-.043-.533-.127-.54-.122-.005.002.11-.122.278-.246-.236-.077-.461-.155-.475-.128-.023-.013.118-.13.318-.232-.227-.051-.44-.115-.445-.107a1.44 1.44 0 01.294-.241c-.206-.046-.392-.107-.392-.107s.105-.11.25-.226c-.24-.072-.474-.157-.482-.155-.004.004.13-.105.32-.207l-.041-.017c-.208-.084-.395-.174-.4-.169-.054-.062.436-.628.466-1.242a1.011 1.011 0 00-.307-.793c.492-.409.546-.991.546-.991s-.323.379-.972.59c.309-.209.89-.92.776-1.62-.242.727-.572.977-1.517 1.261.679-.243 1.255-1.24 1.168-2.224-.431 1.39-1.531 1.814-2.567 2.063h-.046c-.831.03-1.888.447-2.625 1.195-.423.37-.741.807-.85 1.276a.458.458 0 00.021.235zm5.305-6.598s.74.041.877.2c-.045.039-.324.344-.288.751.301-.462.928-.582 1.763-.346-.489-.601-1.748-.87-2.352-.605zm8.213 5.973c.113 1.092.539 2.018.821 2.693.457 1.1.606 1.736.773 2.817.036.23.252 1.55 1.023 2.616.285.393.647.752 1.102 1.007.185.105.385.192.603.258-.134-.229-.213-.46-.19-.457l.388.273c.141.086.296.173.42.229-.178-.22-.31-.492-.291-.494l.099.055c.148.07.432.197.643.296-.135-.208-.226-.416-.212-.41l.074.045c.146.084.484.268.734.401-.233-.234-.433-.554-.382-.534l.052.023c.146.066.455.194.716.307-.232-.226-.429-.524-.348-.503l-.03-.041.194.122c.136.06.324.13.504.199-.177-.222-.31-.47-.273-.483l.149.101c.16.08.41.193.616.292-.238-.231-.456-.597-.456-.594l.047.015c.102.036.368.137.601.238-.196-.224-.338-.517-.337-.512l.054.02c.103.044.324.144.525.234-.19-.215-.336-.54-.344-.537.11.032.364.13.565.228-.208-.224-.366-.543-.364-.538l.049.02c.09.035.29.121.48.207-.218-.239-.363-.521-.349-.523.091.008.337.048.568.102-.314-.214-.57-.442-.55-.452a.199.199 0 00.055.013l-.048-.027.115.035c.107.014.274.032.466.052-.281-.2-.523-.389-.525-.388l.043-.004c.082-.008.276-.02.503-.017a4.562 4.562 0 01-.517-.451s.25-.077.515-.1c-.265-.194-.501-.378-.473-.38.058-.005.177-.012.328-.01-.185-.18-.345-.373-.318-.376.053-.007.167-.017.305-.017-.192-.142-.398-.33-.406-.328.07-.036.197-.088.346-.124l-.089-.046a4.255 4.255 0 01-.326-.197s.18-.097.396-.175c-.248-.111-.475-.224-.449-.237.052-.022.16-.067.297-.111-.198-.091-.39-.197-.45-.226a.07.07 0 00-.02-.008 1.92 1.92 0 01.333-.155l-.035-.063c-.206-.092-.407-.207-.412-.203.049-.042.11-.086.193-.132a2.375 2.375 0 00-.09-.11c-.123-.034-.22-.067-.22-.067s.023-.04.064-.1c-.486-.468-1.167-.712-2.087-.615.33-.63.973-.892 1.445-.878l.073-.02c-.174-.145-.333-.293-.342-.286-.008-.007.157-.066.366-.095-.217-.125-.42-.27-.423-.269a2.314 2.314 0 01.38-.132c-.242-.115-.468-.225-.482-.207-.016-.01.155-.1.39-.163-.222-.086-.44-.176-.453-.175 0 0 .105-.08.261-.158-.202-.089-.384-.196-.384-.196s.11-.075.26-.154c-.226-.123-.45-.262-.456-.26-.006 0 .148-.077.356-.137-.2-.133-.385-.28-.39-.274-.008-.005.144-.069.343-.119-.207-.113-.398-.256-.398-.256s.134-.072.309-.137c-.206-.143-.403-.295-.41-.294-.005 0 .179-.072.415-.109-.183-.15-.35-.312-.356-.307-.005-.005.166-.06.38-.084-.204-.114-.392-.254-.392-.254s.134-.072.309-.138c-.205-.143-.401-.295-.41-.294-.004 0 .089-.035.229-.07a.589.589 0 00-.235-.072c-.24-.035-.852.113-1.222.142-2.202.07-3.076-3.754-3.4-.53-.438-.32-.115-.725-.496-2.495-.163.644-.205 2.343-.293 3.076l-.06.493c-.059.475-.107.897-.125 1.336-.019.418-.01.852.043 1.363zm6.918-5.573l-.506-.245s.35.69.224.893c-.127.204.049 1.099.28 1.512.353-1.47.785-2.612.847-3.002.063-.39-.153-1.185-.911-1.552.282.455.439 1.688.439 1.688l-.65-.807.277 1.513zm1.51 4.64a21.066 21.066 0 00.758 3.789c.042.366.084.74.142 1.114.068.447.158.896.302 1.339.245.758.631 1.486 1.202 2 .211.19.446.35.71.471-.07-.148-.104-.262-.08-.265l.378.278c.112.068.23.134.336.188l.063.01c-.167-.212-.287-.461-.26-.47l.091.062c.144.07.418.193.627.288l-.002-.02c-.124-.199-.207-.386-.186-.39l.065.054.096.054c.17.094.433.237.638.347-.234-.234-.432-.555-.407-.56l.077.048c.146.067.455.194.717.308-.232-.226-.43-.525-.348-.502l-.03-.042.194.12c.137.06.324.132.505.199-.179-.221-.31-.468-.274-.481l.148.1c.171.086.442.208.654.31-.259-.221-.492-.616-.447-.597.104.035.37.137.602.238-.196-.225-.338-.518-.33-.521l.047.031c.102.042.325.14.525.233-.191-.213-.336-.54-.316-.53.082.024.336.121.538.221a2.141 2.141 0 01-.358-.546l.043.026c.09.037.288.124.479.207-.218-.238-.363-.52-.348-.52.09.006.342.05.574.103-.32-.214-.577-.446-.559-.455.003.005.023.009.057.014l-.049-.028.116.037c.113.014.297.033.503.056-.297-.189-.56-.396-.522-.398a6.01 6.01 0 01.534-.017c-.249-.147-.544-.45-.544-.45s.248-.076.514-.101c-.266-.194-.502-.377-.474-.379.057-.006.178-.012.328-.01-.183-.182-.345-.373-.317-.378.052-.006.167-.016.305-.016-.192-.14-.398-.33-.384-.339.048-.025.174-.076.323-.112-.214-.109-.415-.243-.415-.243s.18-.1.397-.175c-.248-.111-.475-.224-.449-.238a2.66 2.66 0 01.298-.11c-.237-.11-.466-.24-.448-.25.055-.032.201-.105.375-.162-.236-.09-.506-.248-.497-.26.045-.033.16-.113.298-.184a.295.295 0 01-.028-.004c-.195-.031-.402-.104-.402-.104s.054-.093.137-.199c-.426-.256-.703.1-.924.09 0 0 .104-.178.2-.528.015-.055.03-.113.044-.176-.085.007-.14.008-.14.008s.08-.18.203-.363l.007-.048c-.183.068-.343.107-.325.063.028-.078.092-.261.178-.441a1.739 1.739 0 01-.282.064l.02-.04c.036-.076.12-.248.219-.421-.158.02-.286.024-.286.024s.099-.215.242-.416c-.17.04-.304.057-.282.015.035-.07.115-.236.214-.402-.21.044-.387.057-.357.014.046-.073.154-.246.277-.414-.167.003-.304-.005-.304-.005s.109-.185.26-.36c-.177.005-.312-.007-.27-.049.054-.062.18-.201.311-.343-.237.055-.439.07-.44.035l.08-.06c.056-.065.135-.165.224-.276l-.046-.05c-.167.035-.3.05-.281.014.02-.035.054-.1.098-.177a1.556 1.556 0 00-.22-.143c-.308-.164-.734-.263-1.315-.185-1.28.167-2.075-.878-2.544-2.288-1.265 3.127-.899 4.266-.783 4.67zm7.083-3.607c-.006.746-.108 1.558-.65 2.159 0 0 .388-.116.48.035.095.149-.367 1.042-.367 1.042.53-.253.947-1.257.994-1.49.013-.015.013-.002.009.057.258-.819.585-2.363-.003-3.808-.287.222-.566 1.135-.463 2.005zm-1.71 13.738c-.343.083-.668.12-.977.118l.13 1.47.377 1.699.172.795.171.795-.441-.997-.196-.499-.676-1.63-.795-1.895c-1.158-.506-2-1.713-2.578-3.327.028 1.79-.558 3.937-2.663 4.485-.98.256-1.825.137-2.528-.196l.732 8.307 2.496-1.239.785.18c.166-.03.334-.054.506-.072.13-.013.26-.02.39-.022l-.316-3.58c-.01-.136-.047-.266-.385-1.79l-.218-1.038-.196-.792.356.89.357.868c.58 1.437.643 1.566.705 1.696l2.007 4.18c.98.352 2.009.89 3.127 1.503l3.853 1.187-1.258-14.261c-.336 1.896-1.252 2.759-2.937 3.165zm2.883-11.643s.187.582.865.579c.804-.04 1.308-.669 1.308-.669l-.042-.127c-.307.154-.935.174-.902.127.052-.067.168-.219.304-.372-.207.027-.374.031-.343-.007.054-.067.187-.224.337-.383a5.265 5.265 0 01-.328-.017s.1-.13.247-.275c-.165-.101-.246-.356-.233-.678.017-.495-.536-1.498-.536-1.498.037.885-.14 2.624-.677 3.32zm27.872 31.91l-9.148.795-5.396-1.555-5.044-1.519-.11-1.248-1.595.591-.7-.178c.042.537.016 1.2-.05 2.156-.769 7.364-7.412 9.605-10.229 9.848-2.815.245-5.944-.122-5.944-.122s-4.495.26-7.68-.742c-3.185-1.004-5.069-4.81-5.937-5.887-.417-.515-1.817-1.837-2.074-2.078l-4.403 1.947-.433-.028-.744.786-5.296 2.43-8.38.595-3.507-2.635L60 137.291l3.109-3.29 7.508 4.104 3.05 2.244.326.338 1.906 1.045-.001-.01c-.292-3.303 3.31-4.896 4.97-3.632-.497-1.236 1.128-3.298 1.818-4.254.69-.955 1.746-3.607 4.296-3.957 2.526-.347 3.649 1.856 4.526 3.067l1.514-1.15 1.192 1.062c.318-6.653 3.282-7.476 5.26-7.648 4.098-.356 4.606 3.953 4.606 3.953s.217-1.939 3.778-2.504c3.564-.566 5.349 3.569 5.833 4.678.485 1.11.955 2.963.955 2.963l-.034.02 6.27-2.444 1.083.799 1.042-1.832 6.18-2.603.041-.061 6.661-2.885 3.565 40.409zm-57.172-27.217s.967-1.32 3.503-1.572c-.965-.535-3.323.256-3.503 1.572zm-.09-1.033c.123-.914 1.759-1.462 2.429-1.092-1.76.176-2.43 1.092-2.43 1.092z" fill="#FFF" fill-rule="nonzero"/></svg>